<?xml version="1.0" encoding="utf-8"?>
<!-- Generator: Adobe Illustrator 15.0.0, SVG Export Plug-In . SVG Version: 6.00 Build 0)  -->
<!DOCTYPE svg PUBLIC "-//W3C//DTD SVG 1.1//EN" "http://www.w3.org/Graphics/SVG/1.1/DTD/svg11.dtd">
<svg version="1.1" id="Layer_1" xmlns="http://www.w3.org/2000/svg" xmlns:xlink="http://www.w3.org/1999/xlink" x="0px" y="0px"
	 width="131.609px" height="166.492px" viewBox="0 0 131.609 166.492" enable-background="new 0 0 131.609 166.492"
	 xml:space="preserve">
<g opacity="0.7">
	
		<linearGradient id="SVGID_1_" gradientUnits="userSpaceOnUse" x1="55.0515" y1="646.251" x2="55.0515" y2="576.1715" gradientTransform="matrix(1 0 0 1 8 -444.5078)">
		<stop  offset="0.6476" style="stop-color:#9FD8F0;stop-opacity:0"/>
		<stop  offset="1" style="stop-color:#0096D6"/>
	</linearGradient>
	<path opacity="0.8" fill="url(#SVGID_1_)" enable-background="new    " d="M6.545,199.771l-0.046-66.625
		c-0.031-0.484,0.057-0.946,0.231-1.364c0.184-0.417,0.455-0.8,0.801-1.12c0.347-0.314,0.767-0.576,1.245-0.75
		c0.472-0.18,0.995-0.279,1.557-0.281l76.313-0.257c0.424,0.767,2.748,4.99,5.984,10.955c3.216,5.927,7.321,13.573,11.333,21.249
		c3.988,7.623,7.889,15.275,10.758,21.361c2.854,6.056,5.804,11.209,4.622,11.979c-35.955,23.479-84.918,15.891-112.798,8.023"/>
</g>
<g>
	<polygon opacity="0.8" fill="#005376" enable-background="new    " points="15.622,6.631 9.925,6.638 86.237,6.38 91.934,6.374 	
		"/>
</g>
<g enable-background="new    ">
	<g>
		<g>
			<defs>
				<path id="SVGID_2_" d="M14.066,6.912L8.368,6.919C8.84,6.739,9.364,6.64,9.925,6.638l5.697-0.007
					C15.061,6.633,14.537,6.732,14.066,6.912z"/>
			</defs>
			<clipPath id="SVGID_3_">
				<use xlink:href="#SVGID_2_"  overflow="visible"/>
			</clipPath>
			<g opacity="0.8" clip-path="url(#SVGID_3_)" enable-background="new    ">
				<path fill="#005072" d="M14.066,6.912L8.368,6.919C8.62,6.823,8.886,6.75,9.165,6.702l5.697-0.007
					C14.583,6.743,14.317,6.816,14.066,6.912"/>
				<path fill="#005377" d="M14.862,6.695L9.165,6.702c0.244-0.042,0.499-0.063,0.76-0.064l5.697-0.007
					C15.36,6.632,15.106,6.654,14.862,6.695"/>
			</g>
		</g>
	</g>
</g>
<g>
	
		<linearGradient id="SVGID_4_" gradientUnits="userSpaceOnUse" x1="60.2083" y1="551.917" x2="60.2081" y2="449.9166" gradientTransform="matrix(1 0 0 1 8 -444.5078)">
		<stop  offset="0.3214" style="stop-color:#0096D6"/>
		<stop  offset="0.8724" style="stop-color:#005A81"/>
	</linearGradient>
	<path opacity="0.8" fill="url(#SVGID_4_)" enable-background="new    " d="M91.934,6.374c0.424,0.766,2.748,4.99,5.984,10.955
		c3.215,5.927,7.321,13.573,11.333,21.249c3.988,7.623,7.889,15.276,10.757,21.362c2.854,6.055,4.699,10.57,4.623,11.979
		c-0.083,1.408-2.424,5.738-5.896,11.449c-3.457,5.682-8.023,12.723-12.605,19.63c-4.561,6.863-9.136,13.591-12.682,18.759
		c-3.526,5.138-6.03,8.737-6.484,9.396l-71.11,0.24c-0.523,0-1.034-0.086-1.499-0.242c-0.473-0.16-0.895-0.385-1.256-0.666
		c-0.37-0.28-0.667-0.625-0.89-0.995c-0.215-0.371-0.35-0.787-0.373-1.222L11.789,10.146C11.758,9.662,11.845,9.2,12.02,8.782
		c0.184-0.417,0.455-0.799,0.801-1.12c0.347-0.314,0.767-0.576,1.245-0.75c0.472-0.18,0.995-0.279,1.557-0.281L91.934,6.374z"/>
</g>
<g>
	
		<linearGradient id="SVGID_5_" gradientUnits="userSpaceOnUse" x1="60.2083" y1="551.917" x2="60.2081" y2="449.9166" gradientTransform="matrix(1 0 0 1 8 -444.5078)">
		<stop  offset="0.3214" style="stop-color:#0096D6"/>
		<stop  offset="0.8724" style="stop-color:#005A81"/>
	</linearGradient>
	<path opacity="0.8" fill="url(#SVGID_5_)" enable-background="new    " d="M91.934,6.374c0.424,0.766,2.748,4.99,5.984,10.955
		c3.215,5.927,7.321,13.573,11.333,21.249c3.988,7.623,7.889,15.276,10.757,21.362c2.854,6.055,4.699,10.57,4.623,11.979
		c-0.083,1.408-2.424,5.738-5.896,11.449c-3.457,5.682-8.023,12.723-12.605,19.63c-4.561,6.863-9.136,13.591-12.682,18.759
		c-3.526,5.138-6.03,8.737-6.484,9.396l-71.11,0.24c-0.523,0-1.034-0.086-1.499-0.242c-0.473-0.16-0.895-0.385-1.256-0.666
		c-0.37-0.28-0.667-0.625-0.89-0.995c-0.215-0.371-0.35-0.787-0.373-1.222L11.789,10.146C11.758,9.662,11.845,9.2,12.02,8.782
		c0.184-0.417,0.455-0.799,0.801-1.12c0.347-0.314,0.767-0.576,1.245-0.75c0.472-0.18,0.995-0.279,1.557-0.281L91.934,6.374z"/>
</g>
<g opacity="0.7">
	
		<linearGradient id="SVGID_6_" gradientUnits="userSpaceOnUse" x1="60.3416" y1="523.251" x2="60.3415" y2="453.1711" gradientTransform="matrix(1 0 0 1 8 -444.5078)">
		<stop  offset="0" style="stop-color:#9FD8F0"/>
		<stop  offset="1" style="stop-color:#0096D6"/>
	</linearGradient>
	<path opacity="0.8" fill="url(#SVGID_6_)" enable-background="new    " d="M11.835,76.771l-0.046-66.625
		C11.758,9.662,11.845,9.2,12.02,8.782c0.184-0.417,0.455-0.799,0.801-1.12c0.347-0.314,0.767-0.576,1.245-0.75
		c0.472-0.18,0.995-0.279,1.557-0.281l76.313-0.257c0.424,0.766,2.748,4.99,5.984,10.955c3.215,5.927,7.321,13.573,11.333,21.249
		c3.988,7.623,7.889,15.276,10.757,21.362c2.854,6.055,5.805,11.209,4.623,11.979c-35.956,23.478-84.918,15.89-112.798,8.024"/>
</g>
<linearGradient id="SVGID_7_" gradientUnits="userSpaceOnUse" x1="2.968" y1="433.1123" x2="2.968" y2="557.3009" gradientTransform="matrix(1 0 0 1 8 -444.5078)">
	<stop  offset="0" style="stop-color:#0095D4"/>
	<stop  offset="0.1987" style="stop-color:#0082BB"/>
	<stop  offset="0.5483" style="stop-color:#006694"/>
	<stop  offset="0.8276" style="stop-color:#00547C"/>
	<stop  offset="1" style="stop-color:#004E73"/>
</linearGradient>
<path opacity="0.8" fill="url(#SVGID_7_)" enable-background="new    " d="M14.354,131.148c-0.473-0.16-0.895-0.383-1.256-0.666
	c-0.37-0.28-0.667-0.623-0.89-0.996c-0.215-0.37-0.35-0.786-0.373-1.219L11.789,10.146C11.758,9.662,11.845,9.2,12.02,8.782
	c0.184-0.417,0.455-0.799,0.801-1.12c0.161-0.146,0.342-0.278,0.533-0.398c0.062-0.039,0.13-0.069,0.192-0.104
	c0.167-0.091,0.334-0.181,0.519-0.248L8.368,6.919C8.299,6.943,8.23,6.971,8.164,6.999C8.052,7.047,7.952,7.111,7.846,7.168
	C7.784,7.203,7.718,7.232,7.658,7.269C7.466,7.39,7.285,7.521,7.124,7.668c-0.347,0.321-0.618,0.703-0.801,1.12
	c-0.177,0.418-0.264,0.88-0.232,1.365l0.047,118.123c0.022,0.433,0.156,0.85,0.372,1.222c0.224,0.372,0.52,0.714,0.89,0.996
	c0.362,0.28,0.784,0.504,1.256,0.665c0.466,0.154,0.976,0.242,1.499,0.24l5.697-0.006C15.329,131.393,14.819,131.307,14.354,131.148
	z"/>
<g>
	<g>
		<g>
			<path fill="#FFFFFF" d="M60.002,63.984c3.591,0,6.523-2.974,6.523-6.613c0-3.657-2.934-6.62-6.523-6.62
				c-3.593,0-6.515,2.963-6.515,6.62C53.488,61.011,56.409,63.984,60.002,63.984z M75.052,80.148
				c-0.015-0.016-4.143-2.354-5.293-3.012l-0.363-1.115c-0.002-0.01-1.103-3.241-1.103-3.241c-0.006-0.028-0.666-1.814-0.666-1.814
				c-0.006-0.017-0.599-1.583-0.599-1.583c-0.022-0.042-0.554-1.264-0.554-1.264c-0.307-0.594-0.771-1.478-1.722-1.867l-0.596-0.25
				c-0.085-0.022-0.683-0.196-0.683-0.196c-0.076-0.026-0.668-0.152-0.668-0.152c-0.069,0-0.547-0.07-0.547-0.07
				c-0.058,0-0.531-0.038-0.531-0.038c-0.061,0-7.518,0-7.518,0c-1.238-0.039-1.969,0.166-3.101,0.863l-0.071,0.044l-0.063,0.06
				l-0.269,0.25l-0.06,0.054l-0.045,0.056l-0.237,0.291c-0.029,0.045-0.24,0.349-0.24,0.349l-0.049,0.065l-0.035,0.076l-0.148,0.337
				l-4.922,6.835c0,0-0.317,0.39-0.059,1.002c0.259,0.613,0.771,2.062,1.271,3.61c1.238,3.832,2.121,6.416,2.974,7.265
				c0.578,0.518,1.131,0.806,2.06,0.663c0.299-0.06,0.523-0.181,0.728-0.312c0.054,2.555,0.245,10.596,0.274,11.914l-2.485,6.024
				c-0.004,0.012-1.944,4.848-1.944,4.848c-0.014,0.048-0.73,2.062-0.73,2.062c-0.013,0.037-0.459,1.464-0.459,1.464l-0.094,0.301
				l0.103,0.292l0.091,0.273l0.048,0.132l0.088,0.12l0.172,0.242l0.063,0.076l0.078,0.064l0.214,0.191l0.048,0.043l0.062,0.035
				l0.235,0.147l0.067,0.034l0.067,0.029l0.295,0.12l0.055,0.028l0.056,0.027c0.718,0.188,2.4,0.151,3.198-0.631l0.041-0.029
				l0.036-0.045l0.146-0.188c0.05-0.063,0.17-0.252,0.17-0.252l0.123-0.185l0.028-0.229l0.007-0.068l6.043-14.271l0.034-0.084
				l0.017-0.091l1.366-6.593l2.413,6.317c-0.14,1.683-0.356,3.45-0.596,5.315c-0.405,3.188-0.824,6.49-0.813,9.519v0.138
				l0.033,0.121c0.32,1.09,1.314,1.348,1.641,1.424c0.098,0.019,0.716,0.11,0.716,0.11l0.106,0.019l0.101-0.019l0.335-0.021
				l0.326-0.018l0.101-0.021l0.096-0.034l0.297-0.095l0.082-0.027l0.081-0.028l0.266-0.156l0.059-0.026l0.045-0.047l0.241-0.168
				l0.087-0.069l0.069-0.09l0.209-0.24l0.052-0.064l0.038-0.066l0.152-0.279l0.081-0.125l0.03-0.166l0.063-0.336
				c0.003-0.043,1.882-14.765,1.882-14.765l0.023-0.179l-0.045-0.17L64.73,87.145L64.593,76.9l1.353,3.791
				c0,0-0.014,0.292,0.462,0.523c0.476,0.231,3.343,1.623,3.343,1.623c0.014,0.008,2.367,1.11,2.367,1.11
				c0.031,0.01,0.841,0.333,0.841,0.333c0.056,0.03,0.417,0.147,0.417,0.147l0.068,0.03l0.062,0.002l0.394,0.062l0.074,0.019h0.464
				l0.062-0.019c0.985-0.125,1.572-0.668,1.786-1.612C76.479,81.888,75.941,80.675,75.052,80.148z"/>
		</g>
	</g>
</g>
<g>
	<path fill="#FFFFFF" d="M21.397,27.749h8.671v2.855h-5.145v3.002h4.829v2.855h-4.829v3.422h5.375v2.855h-8.901V27.749z"/>
	<path fill="#FFFFFF" d="M31.897,27.749h5.228c3.485,0,4.977,1.806,4.977,7.013c0,5.438-0.693,7.979-5.333,7.979h-4.871V27.749z
		 M35.424,40.136h0.945c1.638,0,2.205-0.651,2.205-5.144c0-3.653-0.294-4.64-2.163-4.64h-0.987V40.136z"/>
	<path fill="#FFFFFF" d="M46.869,38.163v0.525c0,1.134,0.315,1.995,1.533,1.995c1.239,0,1.596-0.924,1.596-1.785
		c0-3.233-6.446-1.428-6.446-7.034c0-2.395,1.281-4.409,4.913-4.409c3.527,0,4.787,1.785,4.787,4.094v0.357H49.85
		c0-0.714-0.084-1.239-0.294-1.575c-0.21-0.357-0.547-0.525-1.071-0.525c-0.882,0-1.407,0.525-1.407,1.617
		c0,3.128,6.446,1.554,6.446,6.845c0,3.401-1.891,4.766-5.123,4.766c-2.563,0-4.935-0.777-4.935-3.905v-0.966H46.869z"/>
	<path fill="#FFFFFF" d="M58.146,38.163v0.525c0,1.134,0.314,1.995,1.533,1.995c1.238,0,1.596-0.924,1.596-1.785
		c0-3.233-6.446-1.428-6.446-7.034c0-2.395,1.281-4.409,4.913-4.409c3.527,0,4.787,1.785,4.787,4.094v0.357h-3.401
		c0-0.714-0.084-1.239-0.294-1.575c-0.21-0.357-0.546-0.525-1.07-0.525c-0.883,0-1.407,0.525-1.407,1.617
		c0,3.128,6.446,1.554,6.446,6.845c0,3.401-1.891,4.766-5.123,4.766c-2.563,0-4.935-0.777-4.935-3.905v-0.966H58.146z"/>
	<path fill="#FFFFFF" d="M71.334,37.134l4.829-8.965h3.779v8.965h1.386v2.729h-1.386v2.876h-3.275v-2.876h-5.333V37.134z
		 M76.667,32.158h-0.042l-2.498,4.976h2.54V32.158z"/>
	<path fill="#FFFFFF" d="M82.884,38.96h3.275v3.779h-3.275V38.96z"/>
	<path fill="#FFFFFF" d="M92.711,43.034c-4.451,0-4.893-2.792-4.893-7.58c0.021-4.262,0.463-7.58,4.893-7.58
		c4.451,0,4.894,2.792,4.894,7.58C97.582,39.716,97.141,43.034,92.711,43.034z M92.711,40.808c1.197,0,1.365-1.134,1.365-5.333
		c0-4.241-0.168-5.375-1.365-5.375c-1.196,0-1.364,1.134-1.364,5.375C91.346,39.674,91.514,40.808,92.711,40.808z"/>
</g>
</svg>
