<?xml version="1.0" encoding="utf-8"?>
<!-- Generator: Adobe Illustrator 15.0.0, SVG Export Plug-In . SVG Version: 6.00 Build 0)  -->
<!DOCTYPE svg PUBLIC "-//W3C//DTD SVG 1.1//EN" "http://www.w3.org/Graphics/SVG/1.1/DTD/svg11.dtd">
<svg version="1.1" id="Layer_1" xmlns="http://www.w3.org/2000/svg" xmlns:xlink="http://www.w3.org/1999/xlink" x="0px" y="0px"
	 width="131.609px" height="166.492px" viewBox="0 0 131.609 166.492" enable-background="new 0 0 131.609 166.492"
	 xml:space="preserve">
<g opacity="0.7">
	
		<linearGradient id="SVGID_1_" gradientUnits="userSpaceOnUse" x1="283.0515" y1="-929.2651" x2="283.0515" y2="-859.1856" gradientTransform="matrix(1 0 0 -1 -220 -727.5234)">
		<stop  offset="0.6476" style="stop-color:#9FD8F0;stop-opacity:0"/>
		<stop  offset="1" style="stop-color:#0096D6"/>
	</linearGradient>
	<path opacity="0.8" fill="url(#SVGID_1_)" enable-background="new    " d="M6.545,199.771l-0.046-66.625
		c-0.031-0.484,0.06-0.946,0.231-1.364c0.184-0.417,0.455-0.8,0.801-1.12c0.347-0.314,0.767-0.576,1.245-0.75
		c0.472-0.18,0.995-0.279,1.557-0.281l76.313-0.257c0.424,0.767,2.748,4.99,5.981,10.955c3.219,5.927,7.321,13.573,11.333,21.249
		c3.988,7.623,7.892,15.275,10.761,21.361c2.854,6.056,5.804,11.209,4.619,11.979c-35.952,23.479-84.918,15.891-112.798,8.023"/>
</g>
<g>
	<polygon opacity="0.8" fill="#005376" enable-background="new    " points="15.622,6.631 9.925,6.638 86.237,6.38 91.934,6.374 	
		"/>
</g>
<g enable-background="new    ">
	<g>
		<g>
			<g>
				<g>
					<g>
						<defs>
							<path id="SVGID_2_" d="M14.066,6.912L8.368,6.919C8.84,6.739,9.364,6.64,9.925,6.638l5.697-0.007
								C15.061,6.633,14.537,6.732,14.066,6.912z"/>
						</defs>
						<clipPath id="SVGID_3_">
							<use xlink:href="#SVGID_2_"  overflow="visible"/>
						</clipPath>
						<g opacity="0.8" clip-path="url(#SVGID_3_)" enable-background="new    ">
							<path fill="#005072" d="M14.066,6.912L8.368,6.919C8.62,6.823,8.886,6.75,9.165,6.702l5.697-0.007
								C14.583,6.743,14.317,6.816,14.066,6.912"/>
							<path fill="#005377" d="M14.862,6.695L9.165,6.702c0.244-0.042,0.499-0.063,0.76-0.064l5.697-0.007
								C15.36,6.632,15.106,6.654,14.862,6.695"/>
						</g>
					</g>
				</g>
			</g>
		</g>
	</g>
</g>
<g>
	
		<linearGradient id="SVGID_4_" gradientUnits="userSpaceOnUse" x1="243.783" y1="513.3906" x2="356.6306" y2="513.3906" gradientTransform="matrix(1 0 0 1 -232 -444.5078)">
		<stop  offset="0.3214" style="stop-color:#0096D6"/>
		<stop  offset="0.8413" style="stop-color:#005A81"/>
	</linearGradient>
	<path opacity="0.8" fill="url(#SVGID_4_)" enable-background="new    " d="M91.934,6.374c0.424,0.766,2.748,4.99,5.981,10.955
		c3.215,5.927,7.321,13.573,11.333,21.249c3.988,7.623,7.892,15.276,10.757,21.362c2.854,6.055,4.699,10.57,4.623,11.979
		c-0.083,1.408-2.424,5.738-5.896,11.449c-3.457,5.682-8.023,12.723-12.605,19.63c-4.561,6.863-9.136,13.591-12.682,18.759
		c-3.526,5.138-6.03,8.737-6.484,9.396l-71.107,0.24c-0.523,0-1.034-0.086-1.499-0.242c-0.476-0.157-0.896-0.385-1.256-0.666
		c-0.37-0.277-0.667-0.625-0.893-0.992c-0.215-0.371-0.35-0.787-0.373-1.225L11.789,10.146C11.758,9.662,11.845,9.2,12.02,8.782
		c0.184-0.417,0.455-0.799,0.801-1.12c0.347-0.314,0.767-0.576,1.245-0.75c0.472-0.18,0.995-0.279,1.557-0.281L91.934,6.374z"/>
</g>
<g display="none">
	
		<linearGradient id="SVGID_5_" gradientUnits="userSpaceOnUse" x1="243.783" y1="513.3906" x2="356.6306" y2="513.3906" gradientTransform="matrix(1 0 0 1 -232 -444.5078)">
		<stop  offset="0.3214" style="stop-color:#0096D6"/>
		<stop  offset="0.8413" style="stop-color:#005A81"/>
	</linearGradient>
	<path display="inline" opacity="0.8" fill="url(#SVGID_5_)" enable-background="new    " d="M91.934,6.374
		c0.424,0.766,2.748,4.99,5.981,10.955c3.215,5.927,7.321,13.573,11.333,21.249c3.988,7.623,7.892,15.276,10.757,21.362
		c2.854,6.055,4.699,10.57,4.623,11.979c-0.083,1.408-2.424,5.738-5.896,11.449c-3.457,5.682-8.023,12.723-12.605,19.63
		c-4.561,6.863-9.136,13.591-12.682,18.759c-3.526,5.138-6.03,8.737-6.484,9.396l-71.107,0.24c-0.523,0-1.034-0.086-1.499-0.242
		c-0.476-0.157-0.896-0.385-1.256-0.666c-0.37-0.277-0.667-0.625-0.893-0.992c-0.215-0.371-0.35-0.787-0.373-1.225L11.789,10.146
		C11.758,9.662,11.845,9.2,12.02,8.782c0.184-0.417,0.455-0.799,0.801-1.12c0.347-0.314,0.767-0.576,1.245-0.75
		c0.472-0.18,0.995-0.279,1.557-0.281L91.934,6.374z"/>
</g>
<g opacity="0.7">
	
		<linearGradient id="SVGID_6_" gradientUnits="userSpaceOnUse" x1="288.3416" y1="-806.2642" x2="288.3415" y2="-736.1861" gradientTransform="matrix(1 0 0 -1 -220 -727.5234)">
		<stop  offset="0" style="stop-color:#9FD8F0"/>
		<stop  offset="1" style="stop-color:#0096D6"/>
	</linearGradient>
	<path opacity="0.8" fill="url(#SVGID_6_)" enable-background="new    " d="M11.835,76.771l-0.046-66.625
		C11.758,9.662,11.845,9.2,12.02,8.782c0.184-0.417,0.455-0.799,0.801-1.12c0.347-0.314,0.767-0.576,1.245-0.75
		c0.472-0.18,0.995-0.279,1.557-0.281l76.313-0.257c0.424,0.766,2.748,4.99,5.981,10.955c3.215,5.927,7.321,13.573,11.333,21.249
		c3.988,7.623,7.892,15.276,10.757,21.362c2.854,6.055,5.808,11.209,4.623,11.979c-35.955,23.478-84.918,15.89-112.798,8.024"/>
</g>
<linearGradient id="SVGID_7_" gradientUnits="userSpaceOnUse" x1="230.9695" y1="-716.1279" x2="230.9695" y2="-840.316" gradientTransform="matrix(1 0 0 -1 -220 -727.5234)">
	<stop  offset="0" style="stop-color:#0095D4"/>
	<stop  offset="0.1987" style="stop-color:#0082BB"/>
	<stop  offset="0.5483" style="stop-color:#006694"/>
	<stop  offset="0.8276" style="stop-color:#00547C"/>
	<stop  offset="1" style="stop-color:#004E73"/>
</linearGradient>
<path opacity="0.8" fill="url(#SVGID_7_)" enable-background="new    " d="M14.354,131.148c-0.476-0.16-0.896-0.383-1.256-0.666
	c-0.37-0.28-0.667-0.623-0.893-0.996c-0.215-0.37-0.35-0.786-0.373-1.219L11.789,10.146C11.758,9.662,11.845,9.2,12.02,8.782
	c0.184-0.417,0.455-0.799,0.801-1.12c0.161-0.146,0.342-0.278,0.533-0.398c0.062-0.039,0.13-0.069,0.189-0.104
	c0.167-0.091,0.334-0.181,0.521-0.248L8.368,6.919C8.299,6.943,8.23,6.971,8.164,6.999C8.052,7.047,7.952,7.111,7.846,7.168
	C7.784,7.203,7.718,7.232,7.658,7.269C7.466,7.39,7.285,7.521,7.124,7.668c-0.347,0.321-0.618,0.703-0.801,1.12
	c-0.177,0.418-0.264,0.88-0.232,1.365l0.05,118.123c0.021,0.436,0.153,0.853,0.369,1.225c0.227,0.372,0.521,0.714,0.893,0.996
	c0.362,0.277,0.784,0.504,1.256,0.665c0.466,0.151,0.976,0.239,1.499,0.237l5.697-0.006
	C15.329,131.393,14.819,131.307,14.354,131.148z"/>
<g>
	<g>
		<path fill="#FFFFFF" d="M69.224,65.302c3.481-0.493,5.913-3.766,5.412-7.305c-0.499-3.534-3.737-6.008-7.227-5.515
			c-3.48,0.492-5.912,3.766-5.412,7.3C62.501,63.319,65.741,65.793,69.224,65.302z M81.332,77.686
			c-1.046-1.703-2.242-1.59-3.311-1.59c-0.363-0.01-0.729-0.01-1.07-0.005c-2.71,0.04-4.279-0.046-4.886-2.176
			c-0.132-0.443-0.243-0.876-0.346-1.3c-0.729-2.871-1.375-5.351-6.521-6.359c-4.01-1.958-5.438-2.035-7.937-0.448
			c-2.04,1.287-12.309,7.902-14.156,9.198c-1.357,0.957-2.332,3.074-1.546,4.372c0.816,1.356,2.787,1.201,5.85-0.477
			c0.021-0.013,5.022-3.012,8.335-5.003l-2.257,4.067l-19.154,24.098c-1.052,1.408-1.351,2.99-0.814,4.256
			c0.396,0.953,1.221,1.584,2.205,1.711c0.823,0.104,2.461-0.062,4.164-2.359c-0.05,0.062,14.384-16.236,17.126-19.333l7.918,4.729
			L59,99.904c-0.76,1.3-0.799,2.893-0.125,4.088c0.521,0.923,1.356,1.443,2.296,1.451c0.916,0.002,2.287-0.489,3.629-2.87
			c-0.03,0.059,7.677-11.558,7.677-11.558l0.19-0.291l-0.048-0.348c-0.016-0.107-0.434-2.896-2.966-4.834
			c-1.549-1.182-4.479-3.179-5.924-4.158l3.315-3.854l2.305,3.688l0.26,0.423l0.488,0.003l8.353,0.097
			c2.296-0.137,3.275-1.581,3.249-2.866C81.694,78.469,81.542,78.068,81.332,77.686z"/>
	</g>
</g>
<rect x="20.305" y="27.746" fill="none" width="78" height="16.667"/>
<g enable-background="new    ">
	<path fill="#FFFFFF" d="M21.396,27.748h8.671v2.855h-5.146v3.003h4.829v2.855h-4.829v3.422h5.375v2.855h-8.899V27.748z"/>
	<path fill="#FFFFFF" d="M31.896,27.748h5.228c3.485,0,4.979,1.806,4.979,7.013c0,5.438-0.693,7.979-5.333,7.979h-4.871
		L31.896,27.748L31.896,27.748z M35.424,40.136h0.945c1.638,0,2.205-0.65,2.205-5.145c0-3.652-0.294-4.64-2.163-4.64h-0.987V40.136z
		"/>
	<path fill="#FFFFFF" d="M46.868,38.162v0.524c0,1.135,0.315,1.995,1.533,1.995c1.239,0,1.596-0.924,1.596-1.784
		c0-3.234-6.446-1.428-6.446-7.034c0-2.394,1.281-4.409,4.913-4.409c3.527,0,4.787,1.785,4.787,4.094v0.357h-3.398
		c0-0.714-0.084-1.238-0.294-1.574c-0.21-0.357-0.549-0.525-1.071-0.525c-0.882,0-1.407,0.525-1.407,1.617
		c0,3.128,6.446,1.553,6.446,6.844c0,3.402-1.893,4.767-5.123,4.767c-2.563,0-4.937-0.776-4.937-3.905v-0.966L46.868,38.162
		L46.868,38.162z"/>
	<path fill="#FFFFFF" d="M58.145,38.162v0.524c0,1.135,0.312,1.995,1.533,1.995c1.236,0,1.596-0.924,1.596-1.784
		c0-3.234-6.446-1.428-6.446-7.034c0-2.394,1.281-4.409,4.913-4.409c3.527,0,4.787,1.785,4.787,4.094v0.357h-3.401
		c0-0.714-0.084-1.238-0.294-1.574c-0.21-0.357-0.546-0.525-1.068-0.525c-0.885,0-1.407,0.525-1.407,1.617
		c0,3.128,6.443,1.553,6.443,6.844c0,3.402-1.89,4.767-5.12,4.767c-2.563,0-4.937-0.776-4.937-3.905v-0.966L58.145,38.162
		L58.145,38.162z"/>
	<path fill="#FFFFFF" d="M76.331,43.033c-4.451,0-4.892-2.792-4.892-7.579c0.021-4.263,0.461-7.58,4.892-7.58
		c4.451,0,4.895,2.793,4.895,7.58C81.202,39.716,80.761,43.033,76.331,43.033z M76.331,40.808c1.196,0,1.364-1.134,1.364-5.333
		c0-4.241-0.168-5.375-1.364-5.375s-1.364,1.134-1.364,5.375C74.967,39.674,75.135,40.808,76.331,40.808z"/>
	<path fill="#FFFFFF" d="M82.883,38.96h3.275v3.779h-3.275V38.96z"/>
	<path fill="#FFFFFF" d="M92.711,43.033c-4.451,0-4.893-2.792-4.893-7.579c0.021-4.263,0.462-7.58,4.893-7.58
		c4.451,0,4.895,2.793,4.895,7.58C97.582,39.716,97.14,43.033,92.711,43.033z M92.711,40.808c1.196,0,1.364-1.134,1.364-5.333
		c0-4.241-0.168-5.375-1.364-5.375c-1.194,0-1.362,1.134-1.362,5.375C91.345,39.674,91.513,40.808,92.711,40.808z"/>
</g>
</svg>
