<?xml version="1.0" encoding="utf-8"?>
<!-- Generator: Adobe Illustrator 15.0.0, SVG Export Plug-In . SVG Version: 6.00 Build 0)  -->
<!DOCTYPE svg PUBLIC "-//W3C//DTD SVG 1.1//EN" "http://www.w3.org/Graphics/SVG/1.1/DTD/svg11.dtd">
<svg version="1.1" id="Layer_1" xmlns="http://www.w3.org/2000/svg" xmlns:xlink="http://www.w3.org/1999/xlink" x="0px" y="0px"
	 width="131.609px" height="166.492px" viewBox="0 0 131.609 166.492" enable-background="new 0 0 131.609 166.492"
	 xml:space="preserve">
<g opacity="0.7">
	
		<linearGradient id="SVGID_1_" gradientUnits="userSpaceOnUse" x1="55.0515" y1="646.251" x2="55.0515" y2="576.1715" gradientTransform="matrix(1 0 0 1 8 -444.5078)">
		<stop  offset="0.6476" style="stop-color:#9FD8F0;stop-opacity:0"/>
		<stop  offset="1" style="stop-color:#0096D6"/>
	</linearGradient>
	<path opacity="0.8" fill="url(#SVGID_1_)" enable-background="new    " d="M6.545,199.771l-0.046-66.625
		c-0.031-0.484,0.057-0.946,0.231-1.364c0.184-0.417,0.455-0.8,0.801-1.12c0.347-0.314,0.767-0.576,1.245-0.75
		c0.472-0.18,0.995-0.279,1.557-0.281l76.313-0.257c0.424,0.767,2.748,4.99,5.984,10.955c3.216,5.927,7.321,13.573,11.333,21.249
		c3.988,7.623,7.889,15.275,10.758,21.361c2.854,6.056,5.804,11.209,4.622,11.979c-35.955,23.479-84.918,15.891-112.798,8.023"/>
</g>
<g>
	<polygon opacity="0.8" fill="#005376" enable-background="new    " points="15.622,6.631 9.925,6.638 86.237,6.38 91.934,6.374 	
		"/>
</g>
<g enable-background="new    ">
	<g>
		<g>
			<defs>
				<path id="SVGID_2_" d="M14.066,6.912L8.368,6.919C8.84,6.739,9.364,6.64,9.925,6.638l5.697-0.007
					C15.061,6.633,14.537,6.732,14.066,6.912z"/>
			</defs>
			<clipPath id="SVGID_3_">
				<use xlink:href="#SVGID_2_"  overflow="visible"/>
			</clipPath>
			<g opacity="0.8" clip-path="url(#SVGID_3_)" enable-background="new    ">
				<path fill="#005072" d="M14.066,6.912L8.368,6.919C8.62,6.823,8.886,6.75,9.165,6.702l5.697-0.007
					C14.583,6.743,14.317,6.816,14.066,6.912"/>
				<path fill="#005377" d="M14.862,6.695L9.165,6.702c0.244-0.042,0.499-0.063,0.76-0.064l5.697-0.007
					C15.36,6.632,15.106,6.654,14.862,6.695"/>
			</g>
		</g>
	</g>
</g>
<g>
	
		<linearGradient id="SVGID_4_" gradientUnits="userSpaceOnUse" x1="60.2083" y1="551.917" x2="60.2081" y2="449.9166" gradientTransform="matrix(1 0 0 1 8 -444.5078)">
		<stop  offset="0.3214" style="stop-color:#0096D6"/>
		<stop  offset="0.8724" style="stop-color:#005A81"/>
	</linearGradient>
	<path opacity="0.8" fill="url(#SVGID_4_)" enable-background="new    " d="M91.934,6.374c0.424,0.766,2.748,4.99,5.984,10.955
		c3.215,5.927,7.321,13.573,11.333,21.249c3.988,7.623,7.889,15.276,10.757,21.362c2.854,6.055,4.699,10.57,4.623,11.979
		c-0.083,1.408-2.424,5.738-5.896,11.449c-3.457,5.682-8.023,12.723-12.605,19.63c-4.561,6.863-9.136,13.591-12.682,18.759
		c-3.526,5.138-6.03,8.737-6.484,9.396l-71.11,0.24c-0.523,0-1.034-0.086-1.499-0.242c-0.473-0.16-0.895-0.385-1.256-0.666
		c-0.37-0.28-0.667-0.625-0.89-0.995c-0.215-0.371-0.35-0.787-0.373-1.222L11.789,10.146C11.758,9.662,11.845,9.2,12.02,8.782
		c0.184-0.417,0.455-0.799,0.801-1.12c0.347-0.314,0.767-0.576,1.245-0.75c0.472-0.18,0.995-0.279,1.557-0.281L91.934,6.374z"/>
</g>
<g>
	
		<linearGradient id="SVGID_5_" gradientUnits="userSpaceOnUse" x1="60.2083" y1="551.917" x2="60.2081" y2="449.9166" gradientTransform="matrix(1 0 0 1 8 -444.5078)">
		<stop  offset="0.3214" style="stop-color:#0096D6"/>
		<stop  offset="0.8724" style="stop-color:#005A81"/>
	</linearGradient>
	<path opacity="0.8" fill="url(#SVGID_5_)" enable-background="new    " d="M91.934,6.374c0.424,0.766,2.748,4.99,5.984,10.955
		c3.215,5.927,7.321,13.573,11.333,21.249c3.988,7.623,7.889,15.276,10.757,21.362c2.854,6.055,4.699,10.57,4.623,11.979
		c-0.083,1.408-2.424,5.738-5.896,11.449c-3.457,5.682-8.023,12.723-12.605,19.63c-4.561,6.863-9.136,13.591-12.682,18.759
		c-3.526,5.138-6.03,8.737-6.484,9.396l-71.11,0.24c-0.523,0-1.034-0.086-1.499-0.242c-0.473-0.16-0.895-0.385-1.256-0.666
		c-0.37-0.28-0.667-0.625-0.89-0.995c-0.215-0.371-0.35-0.787-0.373-1.222L11.789,10.146C11.758,9.662,11.845,9.2,12.02,8.782
		c0.184-0.417,0.455-0.799,0.801-1.12c0.347-0.314,0.767-0.576,1.245-0.75c0.472-0.18,0.995-0.279,1.557-0.281L91.934,6.374z"/>
</g>
<g opacity="0.7">
	
		<linearGradient id="SVGID_6_" gradientUnits="userSpaceOnUse" x1="60.3416" y1="523.251" x2="60.3415" y2="453.1711" gradientTransform="matrix(1 0 0 1 8 -444.5078)">
		<stop  offset="0" style="stop-color:#9FD8F0"/>
		<stop  offset="1" style="stop-color:#0096D6"/>
	</linearGradient>
	<path opacity="0.8" fill="url(#SVGID_6_)" enable-background="new    " d="M11.835,76.771l-0.046-66.625
		C11.758,9.662,11.845,9.2,12.02,8.782c0.184-0.417,0.455-0.799,0.801-1.12c0.347-0.314,0.767-0.576,1.245-0.75
		c0.472-0.18,0.995-0.279,1.557-0.281l76.313-0.257c0.424,0.766,2.748,4.99,5.984,10.955c3.215,5.927,7.321,13.573,11.333,21.249
		c3.988,7.623,7.889,15.276,10.757,21.362c2.854,6.055,5.805,11.209,4.623,11.979c-35.956,23.478-84.918,15.89-112.798,8.024"/>
</g>
<linearGradient id="SVGID_7_" gradientUnits="userSpaceOnUse" x1="2.968" y1="433.1123" x2="2.968" y2="557.3008" gradientTransform="matrix(1 0 0 1 8 -444.5078)">
	<stop  offset="0" style="stop-color:#0095D4"/>
	<stop  offset="0.1987" style="stop-color:#0082BB"/>
	<stop  offset="0.5483" style="stop-color:#006694"/>
	<stop  offset="0.8276" style="stop-color:#00547C"/>
	<stop  offset="1" style="stop-color:#004E73"/>
</linearGradient>
<path opacity="0.8" fill="url(#SVGID_7_)" enable-background="new    " d="M14.354,131.148c-0.473-0.16-0.895-0.383-1.256-0.666
	c-0.37-0.28-0.667-0.623-0.89-0.996c-0.215-0.37-0.35-0.786-0.373-1.219L11.789,10.146C11.758,9.662,11.845,9.2,12.02,8.782
	c0.184-0.417,0.455-0.799,0.801-1.12c0.161-0.146,0.342-0.278,0.533-0.398c0.062-0.039,0.13-0.069,0.192-0.104
	c0.167-0.091,0.334-0.181,0.519-0.248L8.368,6.919C8.299,6.943,8.23,6.971,8.164,6.999C8.052,7.047,7.952,7.111,7.846,7.168
	C7.784,7.203,7.718,7.232,7.658,7.269C7.466,7.39,7.285,7.521,7.124,7.668c-0.347,0.321-0.618,0.703-0.801,1.12
	c-0.177,0.418-0.264,0.88-0.232,1.365l0.047,118.123c0.022,0.433,0.156,0.85,0.372,1.222c0.224,0.372,0.52,0.714,0.89,0.996
	c0.362,0.28,0.784,0.504,1.256,0.665c0.466,0.154,0.976,0.242,1.499,0.24l5.697-0.006C15.329,131.393,14.819,131.307,14.354,131.148
	z"/>
<g>
	<path fill="#FFFFFF" d="M19.397,27.749h8.671v2.855h-5.145v3.002h4.829v2.855h-4.829v3.422h5.375v2.855h-8.901V27.749z"/>
	<path fill="#FFFFFF" d="M29.897,27.749h5.228c3.485,0,4.977,1.806,4.977,7.013c0,5.438-0.693,7.979-5.333,7.979h-4.871V27.749z
		 M33.424,40.136h0.945c1.638,0,2.205-0.651,2.205-5.144c0-3.653-0.294-4.64-2.163-4.64h-0.987V40.136z"/>
	<path fill="#FFFFFF" d="M44.869,38.163v0.525c0,1.134,0.315,1.995,1.533,1.995c1.239,0,1.596-0.924,1.596-1.785
		c0-3.233-6.446-1.428-6.446-7.034c0-2.395,1.281-4.409,4.913-4.409c3.527,0,4.787,1.785,4.787,4.094v0.357H47.85
		c0-0.714-0.084-1.239-0.294-1.575c-0.21-0.357-0.547-0.525-1.071-0.525c-0.882,0-1.407,0.525-1.407,1.617
		c0,3.128,6.446,1.554,6.446,6.845c0,3.401-1.891,4.766-5.123,4.766c-2.563,0-4.935-0.777-4.935-3.905v-0.966H44.869z"/>
	<path fill="#FFFFFF" d="M56.146,38.163v0.525c0,1.134,0.314,1.995,1.533,1.995c1.238,0,1.596-0.924,1.596-1.785
		c0-3.233-6.446-1.428-6.446-7.034c0-2.395,1.281-4.409,4.913-4.409c3.527,0,4.787,1.785,4.787,4.094v0.357h-3.401
		c0-0.714-0.084-1.239-0.294-1.575c-0.21-0.357-0.546-0.525-1.07-0.525c-0.883,0-1.407,0.525-1.407,1.617
		c0,3.128,6.445,1.554,6.445,6.845c0,3.401-1.89,4.766-5.122,4.766c-2.563,0-4.935-0.777-4.935-3.905v-0.966H56.146z"/>
	<path fill="#FFFFFF" d="M69.544,31.15v-2.981h9.471v2.625c-2.289,3.464-3.886,8.65-4.031,11.947h-3.654
		c0.211-3.422,2.163-8.797,4.305-11.59L69.544,31.15L69.544,31.15z"/>
	<path fill="#FFFFFF" d="M80.884,38.96h3.275v3.779h-3.275V38.96z"/>
	<path fill="#FFFFFF" d="M90.711,43.034c-4.451,0-4.893-2.792-4.893-7.58c0.021-4.262,0.463-7.58,4.893-7.58
		c4.451,0,4.894,2.792,4.894,7.58C95.582,39.716,95.141,43.034,90.711,43.034z M90.711,40.808c1.197,0,1.365-1.134,1.365-5.333
		c0-4.241-0.168-5.375-1.365-5.375c-1.196,0-1.364,1.134-1.364,5.375C89.346,39.674,89.514,40.808,90.711,40.808z"/>
</g>
<g>
	<g>
		<path fill="#FFFFFF" d="M56.618,65.396c3.651,0,6.588-3.005,6.588-6.694c0-3.682-2.937-6.673-6.588-6.673
			c-3.619,0-6.574,2.992-6.574,6.673C50.044,62.391,52.999,65.396,56.618,65.396z M80.781,106.689L77.205,93.65
			c-0.223-0.812-0.756-1.5-1.482-1.918l-10.344-5.938V71.263c0-2.349-1.903-4.254-4.254-4.254h-8.999
			c-2.351,0-4.254,1.905-4.254,4.254v16.676h-1.376V75.834H34.009c-1.344,0-2.433,1.11-2.433,2.475c0,1.365,1.088,2.465,2.433,2.465
			h7.618v12.107h5.233c-2.423,2.498-3.937,5.915-3.937,9.703c0,7.63,6.122,13.843,13.645,13.843c3.915,0,7.44-1.694,9.932-4.389
			c-0.12,1.159,0.239,2.353,1.114,3.228c1.573,1.57,4.129,1.543,5.718-0.047c1.585-1.584,1.61-4.138,0.038-5.708
			c-1.245-1.245-3.121-1.469-4.637-0.708c0.934-1.873,1.472-3.98,1.472-6.219c0-3.098-1.021-5.938-2.711-8.24l3.923,2.254
			l3.23,11.774c0.388,1.413,1.669,2.341,3.065,2.341c0.278,0,0.563-0.036,0.843-0.113C80.25,110.135,81.246,108.385,80.781,106.689z
			 M56.568,111.479c-4.835,0-8.774-3.994-8.774-8.895c0-4.912,3.938-8.898,8.774-8.898c4.827,0,8.776,3.986,8.776,8.898
			C65.344,107.484,61.395,111.479,56.568,111.479z"/>
	</g>
</g>
</svg>
