<?xml version="1.0" encoding="utf-8"?>
<!-- Generator: Adobe Illustrator 15.0.0, SVG Export Plug-In . SVG Version: 6.00 Build 0)  -->
<!DOCTYPE svg PUBLIC "-//W3C//DTD SVG 1.1//EN" "http://www.w3.org/Graphics/SVG/1.1/DTD/svg11.dtd">
<svg version="1.1" id="Layer_1" xmlns="http://www.w3.org/2000/svg" xmlns:xlink="http://www.w3.org/1999/xlink" x="0px" y="0px"
	 width="131.609px" height="166.492px" viewBox="0 0 131.609 166.492" enable-background="new 0 0 131.609 166.492"
	 xml:space="preserve">
<g opacity="0.7">
	
		<linearGradient id="SVGID_1_" gradientUnits="userSpaceOnUse" x1="51.051" y1="-484.7588" x2="51.051" y2="-414.6793" gradientTransform="matrix(1 0 0 -1 12 -283.0156)">
		<stop  offset="0.6476" style="stop-color:#9FD8F0;stop-opacity:0"/>
		<stop  offset="1" style="stop-color:#0096D6"/>
	</linearGradient>
	<path opacity="0.8" fill="url(#SVGID_1_)" enable-background="new    " d="M6.545,199.771l-0.046-66.625
		c-0.031-0.484,0.058-0.946,0.231-1.364c0.184-0.417,0.455-0.8,0.801-1.12c0.347-0.314,0.767-0.576,1.245-0.75
		c0.472-0.18,0.995-0.279,1.557-0.281l76.313-0.257c0.424,0.767,2.748,4.99,5.983,10.955c3.217,5.927,7.321,13.573,11.333,21.249
		c3.988,7.623,7.89,15.275,10.759,21.361c2.854,6.056,5.804,11.209,4.621,11.979c-35.954,23.479-84.918,15.891-112.798,8.023"/>
</g>
<g>
	<polygon opacity="0.8" fill="#005376" enable-background="new    " points="15.622,6.631 9.925,6.638 86.237,6.38 91.934,6.374 	
		"/>
</g>
<g enable-background="new    ">
	<g>
		<g>
			<g>
				<defs>
					<path id="SVGID_2_" d="M14.066,6.912L8.368,6.919C8.84,6.739,9.364,6.64,9.925,6.638l5.697-0.007
						C15.061,6.633,14.537,6.732,14.066,6.912z"/>
				</defs>
				<clipPath id="SVGID_3_">
					<use xlink:href="#SVGID_2_"  overflow="visible"/>
				</clipPath>
				<g opacity="0.8" clip-path="url(#SVGID_3_)" enable-background="new    ">
					<path fill="#005072" d="M14.066,6.912L8.368,6.919C8.62,6.823,8.886,6.75,9.165,6.702l5.697-0.007
						C14.583,6.743,14.317,6.816,14.066,6.912"/>
					<path fill="#005377" d="M14.862,6.695L9.165,6.702c0.244-0.042,0.499-0.063,0.76-0.064l5.697-0.007
						C15.36,6.632,15.106,6.654,14.862,6.695"/>
				</g>
			</g>
		</g>
	</g>
</g>
<g>
	
		<linearGradient id="SVGID_4_" gradientUnits="userSpaceOnUse" x1="56.2073" y1="-390.4243" x2="56.2071" y2="-288.4243" gradientTransform="matrix(1 0 0 -1 12 -283.0156)">
		<stop  offset="0.3214" style="stop-color:#0096D6"/>
		<stop  offset="0.8724" style="stop-color:#005A81"/>
	</linearGradient>
	<path opacity="0.8" fill="url(#SVGID_4_)" enable-background="new    " d="M91.934,6.374c0.424,0.766,2.748,4.99,5.983,10.955
		c3.215,5.927,7.321,13.573,11.333,21.249c3.988,7.623,7.89,15.276,10.757,21.362c2.854,6.055,4.699,10.57,4.623,11.979
		c-0.083,1.408-2.424,5.738-5.896,11.449c-3.457,5.682-8.023,12.723-12.605,19.63c-4.561,6.863-9.136,13.591-12.682,18.759
		c-3.526,5.138-6.03,8.737-6.484,9.396l-71.109,0.24c-0.523,0-1.034-0.086-1.499-0.242c-0.474-0.159-0.896-0.385-1.256-0.666
		c-0.37-0.279-0.667-0.625-0.891-0.994c-0.215-0.371-0.35-0.787-0.373-1.223L11.789,10.146C11.758,9.662,11.845,9.2,12.02,8.782
		c0.184-0.417,0.455-0.799,0.801-1.12c0.347-0.314,0.767-0.576,1.245-0.75c0.472-0.18,0.995-0.279,1.557-0.281L91.934,6.374z"/>
</g>
<g>
	
		<linearGradient id="SVGID_5_" gradientUnits="userSpaceOnUse" x1="56.2073" y1="-390.4243" x2="56.2071" y2="-288.4243" gradientTransform="matrix(1 0 0 -1 12 -283.0156)">
		<stop  offset="0.3214" style="stop-color:#0096D6"/>
		<stop  offset="0.8724" style="stop-color:#005A81"/>
	</linearGradient>
	<path opacity="0.8" fill="url(#SVGID_5_)" enable-background="new    " d="M91.934,6.374c0.424,0.766,2.748,4.99,5.983,10.955
		c3.215,5.927,7.321,13.573,11.333,21.249c3.988,7.623,7.89,15.276,10.757,21.362c2.854,6.055,4.699,10.57,4.623,11.979
		c-0.083,1.408-2.424,5.738-5.896,11.449c-3.457,5.682-8.023,12.723-12.605,19.63c-4.561,6.863-9.136,13.591-12.682,18.759
		c-3.526,5.138-6.03,8.737-6.484,9.396l-71.109,0.24c-0.523,0-1.034-0.086-1.499-0.242c-0.474-0.159-0.896-0.385-1.256-0.666
		c-0.37-0.279-0.667-0.625-0.891-0.994c-0.215-0.371-0.35-0.787-0.373-1.223L11.789,10.146C11.758,9.662,11.845,9.2,12.02,8.782
		c0.184-0.417,0.455-0.799,0.801-1.12c0.347-0.314,0.767-0.576,1.245-0.75c0.472-0.18,0.995-0.279,1.557-0.281L91.934,6.374z"/>
</g>
<g opacity="0.7">
	
		<linearGradient id="SVGID_6_" gradientUnits="userSpaceOnUse" x1="56.342" y1="-361.7583" x2="56.3419" y2="-291.6789" gradientTransform="matrix(1 0 0 -1 12 -283.0156)">
		<stop  offset="0" style="stop-color:#9FD8F0"/>
		<stop  offset="1" style="stop-color:#0096D6"/>
	</linearGradient>
	<path opacity="0.8" fill="url(#SVGID_6_)" enable-background="new    " d="M11.835,76.771l-0.046-66.625
		C11.758,9.662,11.845,9.2,12.02,8.782c0.184-0.417,0.455-0.799,0.801-1.12c0.347-0.314,0.767-0.576,1.245-0.75
		c0.472-0.18,0.995-0.279,1.557-0.281l76.313-0.257c0.424,0.766,2.748,4.99,5.983,10.955c3.215,5.927,7.321,13.573,11.333,21.249
		c3.988,7.623,7.89,15.276,10.757,21.362c2.854,6.055,5.806,11.209,4.623,11.979c-35.955,23.478-84.918,15.89-112.798,8.024"/>
</g>
<linearGradient id="SVGID_7_" gradientUnits="userSpaceOnUse" x1="-1.032" y1="-271.6201" x2="-1.032" y2="-395.8082" gradientTransform="matrix(1 0 0 -1 12 -283.0156)">
	<stop  offset="0" style="stop-color:#0095D4"/>
	<stop  offset="0.1987" style="stop-color:#0082BB"/>
	<stop  offset="0.5483" style="stop-color:#006694"/>
	<stop  offset="0.8276" style="stop-color:#00547C"/>
	<stop  offset="1" style="stop-color:#004E73"/>
</linearGradient>
<path opacity="0.8" fill="url(#SVGID_7_)" enable-background="new    " d="M14.354,131.148c-0.474-0.16-0.896-0.383-1.256-0.666
	c-0.37-0.28-0.667-0.623-0.891-0.996c-0.215-0.37-0.35-0.786-0.373-1.219L11.789,10.146C11.758,9.662,11.845,9.2,12.02,8.782
	c0.184-0.417,0.455-0.799,0.801-1.12c0.161-0.146,0.342-0.278,0.533-0.398c0.062-0.039,0.13-0.069,0.191-0.104
	c0.167-0.091,0.334-0.181,0.52-0.248L8.368,6.919C8.299,6.943,8.23,6.971,8.164,6.999C8.052,7.047,7.952,7.111,7.846,7.168
	C7.784,7.203,7.718,7.232,7.658,7.269C7.466,7.39,7.285,7.521,7.124,7.668c-0.347,0.321-0.618,0.703-0.801,1.12
	c-0.177,0.418-0.264,0.88-0.232,1.365l0.048,118.123c0.021,0.434,0.155,0.851,0.371,1.223c0.225,0.372,0.521,0.714,0.891,0.996
	c0.362,0.279,0.784,0.504,1.256,0.665c0.466,0.153,0.976,0.241,1.499,0.239l5.697-0.006
	C15.329,131.393,14.819,131.307,14.354,131.148z"/>
<rect x="20.305" y="27.746" fill="none" width="78" height="16.667"/>
<g enable-background="new    ">
	<path fill="#FFFFFF" d="M21.396,27.748h8.671v2.855h-5.145v3.003h4.829v2.855h-4.829v3.422h5.375v2.855h-8.901V27.748z"/>
	<path fill="#FFFFFF" d="M31.896,27.748h5.228c3.485,0,4.977,1.806,4.977,7.013c0,5.438-0.693,7.979-5.333,7.979h-4.871V27.748z
		 M35.424,40.136h0.945c1.638,0,2.205-0.65,2.205-5.145c0-3.652-0.294-4.64-2.163-4.64h-0.987V40.136z"/>
	<path fill="#FFFFFF" d="M46.868,38.162v0.524c0,1.135,0.315,1.995,1.533,1.995c1.239,0,1.596-0.924,1.596-1.784
		c0-3.234-6.446-1.428-6.446-7.034c0-2.394,1.281-4.409,4.913-4.409c3.527,0,4.787,1.785,4.787,4.094v0.357h-3.4
		c0-0.714-0.084-1.238-0.294-1.574c-0.21-0.357-0.547-0.525-1.071-0.525c-0.882,0-1.407,0.525-1.407,1.617
		c0,3.128,6.446,1.553,6.446,6.844c0,3.402-1.891,4.767-5.123,4.767c-2.563,0-4.935-0.776-4.935-3.905v-0.966L46.868,38.162
		L46.868,38.162z"/>
	<path fill="#FFFFFF" d="M58.145,38.162v0.524c0,1.135,0.314,1.995,1.533,1.995c1.238,0,1.596-0.924,1.596-1.784
		c0-3.234-6.446-1.428-6.446-7.034c0-2.394,1.281-4.409,4.913-4.409c3.527,0,4.787,1.785,4.787,4.094v0.357h-3.401
		c0-0.714-0.084-1.238-0.294-1.574c-0.21-0.357-0.546-0.525-1.07-0.525c-0.883,0-1.407,0.525-1.407,1.617
		c0,3.128,6.445,1.553,6.445,6.844c0,3.402-1.89,4.767-5.122,4.767c-2.563,0-4.935-0.776-4.935-3.905v-0.966L58.145,38.162
		L58.145,38.162z"/>
	<path fill="#FFFFFF" d="M77.527,31.675c0-0.42-0.041-0.819-0.209-1.113S76.855,30.1,76.457,30.1c-1.176,0-1.49,0.924-1.49,4.199
		h0.041c0.464-0.903,1.388-1.302,2.646-1.302c2.268,0,3.568,1.281,3.568,4.619c0,2.961-0.944,5.417-4.871,5.417
		c-4.389,0-4.912-2.792-4.912-7.243c0-4.955,0.355-7.916,5.164-7.916c2.667,0,4.283,1.113,4.326,3.801H77.527z M77.695,38.226
		c0-1.807-0.209-2.625-1.322-2.625c-1.05,0-1.281,1.029-1.281,2.373c0,1.742,0.273,2.834,1.304,2.834
		C77.402,40.808,77.695,39.842,77.695,38.226z"/>
	<path fill="#FFFFFF" d="M82.883,38.96h3.275v3.779h-3.275V38.96z"/>
	<path fill="#FFFFFF" d="M92.711,43.033c-4.451,0-4.893-2.792-4.893-7.579c0.021-4.263,0.462-7.58,4.893-7.58
		c4.451,0,4.893,2.793,4.893,7.58C97.582,39.716,97.14,43.033,92.711,43.033z M92.711,40.808c1.196,0,1.364-1.134,1.364-5.333
		c0-4.241-0.168-5.375-1.364-5.375s-1.364,1.134-1.364,5.375C91.345,39.674,91.513,40.808,92.711,40.808z"/>
</g>
<g>
	<g>
		<path fill="#FFFFFF" d="M75.446,83.492c0.579-0.259,1.01-0.649,1.154-1.361c0.193-0.988-0.344-2.185-1.229-2.714
			c-0.01,0-4.094-2.326-5.226-2.963l-0.367-1.11c0-0.01-1.091-3.197-1.091-3.197c-0.015-0.034-0.656-1.799-0.656-1.799l-0.592-1.557
			c-0.016-0.044-0.541-1.244-0.541-1.244c-0.346-0.661-0.773-1.476-1.704-1.857l-0.592-0.233c-0.069-0.035-0.65-0.213-0.65-0.213
			l-0.046-0.013l-0.047-0.013l-0.598-0.122c-0.055-0.008-0.535-0.065-0.535-0.065c-0.065,0-0.535-0.034-0.535-0.034
			c-0.05,0-7.423,0-7.423,0c-1.335-0.057-2.049,0.234-3.063,0.836l-0.081,0.048l-0.058,0.058l-0.27,0.256l-0.037,0.047l-0.056,0.053
			l-0.24,0.291c-0.032,0.068-0.229,0.358-0.229,0.358L50.688,67l-0.028,0.077l-0.141,0.3l-4.866,6.791c0,0-0.389,0.232-0.071,0.989
			c0.316,0.756,0.75,1.991,1.231,3.491c1.256,3.868,2.131,6.454,2.984,7.264c0.623,0.59,1.182,0.777,1.999,0.664l0.06-0.01
			l0.046-0.016c0.243-0.063,0.454-0.182,0.645-0.287c0.054,2.549,0.227,10.463,0.268,11.768l-2.462,5.953
			c0,0.014-1.922,4.799-1.922,4.799c-0.025,0.037-0.728,2.041-0.728,2.041c-0.019,0.027-0.453,1.441-0.453,1.441l-0.082,0.273
			l0.096,0.277l0.083,0.273l0.047,0.143l0.091,0.137l0.172,0.221l0.063,0.098l0.075,0.061l0.208,0.18l0.062,0.051l0.048,0.023
			l0.235,0.15l0.058,0.031l0.052,0.037l0.297,0.119l0.07,0.033h0.048c0.69,0.205,2.396,0.156,3.164-0.611
			c0.066-0.059,0.21-0.232,0.21-0.232l0.048-0.045l0.021-0.049l0.115-0.182l0.121-0.174l0.025-0.207l0.011-0.082l5.96-14.111
			l0.047-0.076l0.013-0.09l1.358-6.523l2.394,6.258c-0.151,1.666-0.365,3.408-0.602,5.256c-0.396,3.154-0.816,6.414-0.801,9.398
			v0.105l0.029,0.125c0.189,0.74,0.743,1.225,1.632,1.434c0.083,0.014,0.692,0.115,0.692,0.115l0.103,0.008l0.105-0.008l0.332-0.027
			c-0.01,0,0.315-0.035,0.315-0.035l0.088-0.008l0.109-0.031l0.297-0.094l0.081-0.023l0.094-0.037l0.264-0.148l0.046-0.043
			l0.052-0.033l0.232-0.184l0.081-0.053l0.063-0.078l0.211-0.248l0.048-0.068l0.045-0.07l0.146-0.264l0.081-0.135l0.021-0.146
			l0.076-0.33c0-0.062,1.846-14.603,1.846-14.603l0.023-0.183l-0.035-0.161l-2.862-11.326L65.03,76.221l1.342,3.734l0.13,0.359
			l0.321,0.156l3.312,1.623c0.016,0.013,1.196,0.559,1.887,0.871c-2.649,0.378-5.18,2.599-5.538,7.138
			c-0.101,1.25,0.813,2.352,2.045,2.451c1.228,0.1,2.318-0.828,2.41-2.082c0.063-0.729,0.385-3.098,1.944-3.021
			c0.913,0.033,2.252,0.965,2.242,2.836l-0.004,18.488l0.004,7.264c0,1.252,1.005,2.266,2.237,2.266
			c1.235,0,2.241-1.014,2.241-2.266v-25.75C79.608,86.959,77.733,84.541,75.446,83.492z M58.847,63.452
			c3.574,0,6.447-2.939,6.447-6.552c0-3.604-2.873-6.532-6.447-6.532c-3.542,0-6.438,2.929-6.438,6.532
			C52.411,60.512,55.304,63.452,58.847,63.452z"/>
	</g>
</g>
</svg>
