<?xml version="1.0" encoding="utf-8"?>
<!-- Generator: Adobe Illustrator 15.0.0, SVG Export Plug-In . SVG Version: 6.00 Build 0)  -->
<!DOCTYPE svg PUBLIC "-//W3C//DTD SVG 1.1//EN" "http://www.w3.org/Graphics/SVG/1.1/DTD/svg11.dtd">
<svg version="1.1" id="Layer_1" xmlns="http://www.w3.org/2000/svg" xmlns:xlink="http://www.w3.org/1999/xlink" x="0px" y="0px"
	 width="131.61px" height="166.492px" viewBox="0 0 131.61 166.492" enable-background="new 0 0 131.61 166.492"
	 xml:space="preserve">
<g>
	<polygon opacity="0.8" fill="#005376" points="15.622,6.631 9.925,6.638 86.237,6.38 91.934,6.374 	"/>
</g>
<g enable-background="new    ">
	<defs>
		<path id="SVGID_1_" enable-background="new    " d="M14.066,6.912L8.368,6.919C8.84,6.739,9.364,6.64,9.925,6.638l5.697-0.007
			C15.061,6.633,14.537,6.732,14.066,6.912z"/>
	</defs>
	<clipPath id="SVGID_2_">
		<use xlink:href="#SVGID_1_"  overflow="visible"/>
	</clipPath>
	<g opacity="0.8" clip-path="url(#SVGID_2_)" enable-background="new    ">
		<path fill="#005072" d="M14.066,6.912L8.368,6.919C8.62,6.823,8.886,6.75,9.165,6.702l5.698-0.007
			C14.583,6.743,14.317,6.816,14.066,6.912"/>
		<path fill="#005377" d="M14.862,6.695L9.165,6.702c0.244-0.042,0.499-0.063,0.76-0.064l5.697-0.007
			C15.36,6.632,15.106,6.654,14.862,6.695"/>
	</g>
</g>
<g>
	<linearGradient id="SVGID_3_" gradientUnits="userSpaceOnUse" x1="68.208" y1="107.4092" x2="68.208" y2="5.4092">
		<stop  offset="0.3214" style="stop-color:#0096D6"/>
		<stop  offset="0.8724" style="stop-color:#005A81"/>
	</linearGradient>
	<path opacity="0.8" fill="url(#SVGID_3_)" d="M91.934,6.374c0.424,0.766,2.748,4.99,5.985,10.955
		c3.215,5.927,7.321,13.573,11.333,21.249c3.988,7.623,7.888,15.276,10.757,21.362c2.854,6.055,4.699,10.57,4.623,11.979
		c-0.083,1.408-2.424,5.738-5.895,11.449c-3.457,5.682-8.024,12.723-12.606,19.63c-4.56,6.863-9.136,13.591-12.682,18.759
		c-3.526,5.138-6.03,8.737-6.484,9.396l-71.111,0.239c-0.524,0.001-1.034-0.086-1.499-0.242c-0.472-0.161-0.894-0.384-1.256-0.666
		c-0.37-0.281-0.667-0.624-0.889-0.996c-0.215-0.371-0.349-0.787-0.373-1.22L11.789,10.146c-0.031-0.484,0.056-0.946,0.232-1.364
		c0.183-0.417,0.455-0.799,0.801-1.12c0.346-0.314,0.766-0.576,1.245-0.75c0.471-0.18,0.995-0.279,1.556-0.281L91.934,6.374z"/>
</g>
<g opacity="0.7">
	<linearGradient id="SVGID_4_" gradientUnits="userSpaceOnUse" x1="68.3403" y1="78.7432" x2="68.3403" y2="8.6633">
		<stop  offset="0" style="stop-color:#9FD8F0"/>
		<stop  offset="1" style="stop-color:#0096D6"/>
	</linearGradient>
	<path opacity="0.8" fill="url(#SVGID_4_)" d="M11.835,76.771l-0.046-66.625c-0.031-0.484,0.056-0.946,0.232-1.364
		c0.183-0.417,0.455-0.799,0.801-1.12c0.346-0.314,0.766-0.576,1.245-0.75c0.471-0.18,0.995-0.279,1.556-0.281l76.312-0.257
		c0.424,0.766,2.748,4.99,5.985,10.955c3.215,5.927,7.321,13.573,11.333,21.249c3.988,7.623,7.888,15.276,10.757,21.362
		c2.854,6.055,5.804,11.209,4.623,11.979C88.677,95.396,39.715,87.808,11.835,79.943"/>
</g>
<linearGradient id="SVGID_5_" gradientUnits="userSpaceOnUse" x1="10.9692" y1="-11.3955" x2="10.9692" y2="112.7935">
	<stop  offset="0" style="stop-color:#0095D4"/>
	<stop  offset="0.1987" style="stop-color:#0082BB"/>
	<stop  offset="0.5483" style="stop-color:#006694"/>
	<stop  offset="0.8276" style="stop-color:#00547C"/>
	<stop  offset="1" style="stop-color:#004E73"/>
</linearGradient>
<path opacity="0.8" fill="url(#SVGID_5_)" d="M14.354,131.149c-0.472-0.161-0.894-0.384-1.256-0.666
	c-0.37-0.281-0.667-0.624-0.889-0.996c-0.215-0.371-0.349-0.787-0.373-1.22L11.789,10.146c-0.031-0.484,0.056-0.946,0.232-1.364
	c0.183-0.417,0.455-0.799,0.801-1.12c0.161-0.146,0.341-0.278,0.533-0.398c0.061-0.039,0.13-0.069,0.193-0.104
	c0.167-0.091,0.334-0.181,0.518-0.248L8.368,6.919c-0.069,0.024-0.137,0.052-0.204,0.08C8.052,7.047,7.952,7.111,7.846,7.168
	C7.784,7.203,7.718,7.232,7.658,7.269C7.466,7.39,7.285,7.521,7.124,7.668c-0.346,0.321-0.618,0.703-0.801,1.12
	c-0.176,0.418-0.263,0.88-0.232,1.365l0.046,118.122c0.023,0.432,0.157,0.849,0.373,1.221c0.223,0.372,0.519,0.714,0.889,0.996
	c0.362,0.281,0.784,0.504,1.256,0.665c0.465,0.155,0.975,0.244,1.499,0.242l5.697-0.007
	C15.329,131.393,14.819,131.306,14.354,131.149z"/>
<g>
	<g>
		<path fill="#FFFFFF" d="M74.471,56.919c4.773-0.675,8.096-5.157,7.412-10.003c-0.684-4.839-5.119-8.227-9.893-7.552
			c-4.77,0.673-8.094,5.156-7.41,9.996C65.264,54.204,69.701,57.593,74.471,56.919z M91.051,73.878
			c-1.432-2.332-3.07-2.178-4.535-2.178c-0.496-0.014-0.99-0.014-1.465-0.006c-3.709,0.053-5.857-0.064-6.689-2.98
			c-0.18-0.607-0.332-1.2-0.473-1.78c-0.998-3.931-1.883-7.327-8.926-8.708c-5.49-2.68-7.445-2.786-10.867-0.613
			c-2.793,1.761-16.85,10.821-19.385,12.595c-1.859,1.31-3.194,4.21-2.117,5.987c1.123,1.857,3.816,1.644,8.011-0.653
			c0.024-0.017,6.878-4.124,11.413-6.851l-3.091,5.57l-26.229,32.996c-1.44,1.93-1.849,4.097-1.119,5.83
			c0.545,1.304,1.672,2.17,3.019,2.341c1.133,0.143,3.371-0.087,5.702-3.234c-0.062,0.08,19.697-22.238,23.452-26.475l10.843,6.48
			l-8.121,12.104c-1.041,1.78-1.094,3.961-0.172,5.598c0.711,1.263,1.857,1.977,3.144,1.986c1.254,0.004,3.131-0.67,4.969-3.93
			c-0.047,0.08,10.508-15.825,10.508-15.825l0.266-0.399l-0.066-0.471c-0.021-0.153-0.594-3.967-4.061-6.62
			c-2.121-1.617-6.129-4.354-8.113-5.693l4.545-5.281l3.15,5.051L75,79.298l0.668,0.004l11.438,0.133
			c3.143-0.187,4.486-2.164,4.449-3.924C91.545,74.95,91.338,74.401,91.051,73.878z"/>
	</g>
</g>
</svg>
