<?xml version="1.0" encoding="utf-8"?>
<!-- Generator: Adobe Illustrator 15.0.0, SVG Export Plug-In . SVG Version: 6.00 Build 0)  -->
<!DOCTYPE svg PUBLIC "-//W3C//DTD SVG 1.1//EN" "http://www.w3.org/Graphics/SVG/1.1/DTD/svg11.dtd">
<svg version="1.1" xmlns="http://www.w3.org/2000/svg" xmlns:xlink="http://www.w3.org/1999/xlink" x="0px" y="0px"
	 width="1020.391px" height="730.895px" viewBox="-142.891 -57.395 1020.391 730.895"
	 enable-background="new -142.891 -57.395 1020.391 730.895" xml:space="preserve">
<g id="Layer_2">
	
		<radialGradient id="SVGID_1_" cx="384.9902" cy="286.6719" r="613.1931" gradientTransform="matrix(0.8925 0 0 0.9632 13.0932 30.5771)" gradientUnits="userSpaceOnUse">
		<stop  offset="0.0857" style="stop-color:#FFE467"/>
		<stop  offset="0.7397" style="stop-color:#FAA93D"/>
	</radialGradient>
	<rect x="-140.354" y="-57.395" fill="url(#SVGID_1_)" width="1020" height="732.656"/>
</g>
<g id="Layer_1">
	<g>
		
			<radialGradient id="SVGID_2_" cx="174.4121" cy="312.0996" r="346.4041" gradientTransform="matrix(0.9733 0.2297 -0.2297 0.9733 144.8703 -18.0184)" gradientUnits="userSpaceOnUse">
			<stop  offset="0" style="stop-color:#FFE467"/>
			<stop  offset="1" style="stop-color:#FAA93D"/>
		</radialGradient>
		<path id="SVGID_4_" fill="url(#SVGID_2_)" d="M-53.466,594.067c0.068,0.565,0.13,1.126,0.203,1.7
			c0.823,0.092,1.653,0.162,2.469,0.236c5.392-4.902,10.789-9.806,16.178-14.704C-41.592,584.451-47.141,585.957-53.466,594.067
			 M-32.841,591.546c0.075,0.329,0.15,0.66,0.228,0.989c0.492,0.003,0.988-0.003,1.476-0.016c2.888-3.242,5.778-6.484,8.664-9.722
			C-26.41,585.103-29.601,586.348-32.841,591.546 M-21.674,580.36c0.193,0.108,0.379,0.215,0.569,0.32
			c0.757-0.999,1.521-2.006,2.285-3.013C-20.417,578.472-20.037,578.182-21.674,580.36 M-21.464,564.934
			c0.063,0.573,0.125,1.14,0.201,1.706c0.82,0.088,1.652,0.163,2.467,0.236c5.392-4.903,10.789-9.813,16.177-14.705
			C-9.594,555.322-15.145,556.829-21.464,564.934 M3.275,541.022c0.193,0.106,0.378,0.22,0.571,0.326
			c0.227-0.448,0.456-0.891,0.678-1.333c10.787-9.082,21.57-18.177,32.351-27.258C26.91,516.682,10.914,530.751,3.275,541.022
			 M84.375,513.696c5.565,0.024,10.67-0.77,16.43-1.518c-0.347-0.086-0.687-0.182-1.035-0.285
			C94.552,511.226,88.97,512.88,84.375,513.696 M120.217,510.53c-4.416,0.74-8.708,1.314-12.946,1.021
			c-0.257,0.031-0.513,0.06-0.77,0.096c6.592,1.654,13.464-0.011,19.936-1.062C124.23,510.5,122.169,510.493,120.217,510.53
			 M62.972,488.941c0.693-0.232,1.4-0.523,2.116-0.852l0.49-1.129C64.707,487.618,63.839,488.283,62.972,488.941 M290.663,538.211
			c0.391,0.456,0.795,0.894,1.208,1.34c2.85,0.312,6.439-13.311,9.301-12.998c-0.125-0.088-0.258-0.146-0.385-0.177
			C297.921,525.699,294.641,538.149,290.663,538.211 M70.315,471.877c0.23,0.188,0.459,0.372,0.69,0.552
			c0.378-0.54,0.748-1.089,1.124-1.634c0.146-0.066,0.292-0.14,0.44-0.208l1.252-2.918C72.573,469.071,71.39,470.507,70.315,471.877
			 M336.357,515.074c-1.05,1.352-2.054,2.689-2.928,4.002c5.121-1.929,10.093-4.012,10.51-7.819
			C342.17,512.722,339.361,513.903,336.357,515.074 M548.985,548.805c1.092,1.887-0.107,0.55,2.052,2.05
			c-0.155-0.565-0.313-1.149-0.47-1.726C550.048,549.021,549.516,548.912,548.985,548.805 M537.867,550.602
			c-0.105-0.843-0.211-1.677-0.313-2.515c-3.795-2.092-7.588-4.179-11.387-6.271C529.718,544.569,532.742,548.023,537.867,550.602
			 M548.998,544.729c3.746,3.216,7.493,6.439,11.245,9.652c-0.582-1.205-1.158-2.416-1.732-3.615
			c-2.646-1.908-5.287-3.816-7.927-5.719C550.06,544.933,549.531,544.826,548.998,544.729 M349.943,498.275
			c0.172,0.575,0.338,1.145,0.507,1.721c0.269,0.048,0.532,0.098,0.804,0.145c6.225-1.031,13.963-1.595,20.191-2.62
			C364.781,497.924,356.607,497.874,349.943,498.275 M496.184,528.142c0.52,0.103,1.058,0.212,1.581,0.322
			c7.753,3.509,15.513,7.02,23.27,10.525c-7.125-3.925-14.24-7.842-21.364-11.764C498.512,527.532,497.348,527.839,496.184,528.142
			 M472.708,517.597c0.476,0.372,0.953,0.737,1.425,1.108c2.568,2.121,8.367,4.566,11.581,4.014
			c-3.275-1.493-6.547-2.981-9.828-4.471C474.83,518.036,473.767,517.815,472.708,517.597 M79.018,423.413
			c0.459,1.198,0.921,2.403,1.382,3.606c0.227-1.645,0.437-3.312,0.625-4.978C80.357,422.494,79.687,422.953,79.018,423.413
			 M366.293,492.646c1.029-0.195,1.98-0.338,2.835-0.429c8.224-0.866,12.586,1.804,18.394-1.508
			c-0.164-0.576-0.336-1.147-0.504-1.732C379.905,489.452,372.974,491.023,366.293,492.646 M508.342,516.402
			c-0.004,0.021-0.01,0.033-0.016,0.052c0.413,0.339,0.824,0.676,1.238,1.021c1.654,0.342,3.31,0.686,4.963,1.025
			c-1.008-0.483-2.012-0.96-3.015-1.443C510.46,516.839,509.399,516.624,508.342,516.402 M509.256,512.86
			c-0.05,0.255-0.106,0.521-0.166,0.781c7.109,4.113,14.485,14.816,23.456,14.621c-6.97-4.965-13.938-9.944-20.907-14.913
			C510.846,513.182,510.051,513.024,509.256,512.86 M67.377,402.271c0.946,0.934,1.899,1.875,2.849,2.814
			c-0.19-0.59-0.376-1.175-0.561-1.771c-0.573-0.562-1.146-1.118-1.711-1.682C67.769,401.844,67.574,402.055,67.377,402.271
			 M65.678,398.191c0.292,0.279,0.576,0.565,0.862,0.847c0-0.417-0.008-0.825-0.01-1.237c-0.087-0.082-0.177-0.171-0.262-0.258
			C66.074,397.757,65.874,397.97,65.678,398.191 M63.992,394.092c0.837,0.828,1.677,1.657,2.513,2.491
			c-0.007-0.272-0.016-0.541-0.026-0.804c-0.071-0.209-0.135-0.416-0.203-0.624c-0.565-0.563-1.137-1.125-1.71-1.692
			C64.377,393.676,64.187,393.882,63.992,394.092 M462.83,485.34c-0.054,0.261-0.109,0.517-0.164,0.784
			c4.961,2.382,10.733,7.087,16.969,5.943c-4.811-2.083-9.618-4.162-14.424-6.245C464.41,485.66,463.617,485.503,462.83,485.34
			 M7.389,356.482c-4.102-1.76-8.209-3.532-12.317-5.292C-0.686,353.688,3.512,355.946,7.389,356.482 M-69.255,342.609
			c7.226-0.549,22.176,1.161,31.95,2.149c7.898,0.8,12.412,1.131,6.726-0.57c-0.584-0.173-1.193-0.335-1.827-0.484
			C-45.628,340.583-69.255,342.609-69.255,342.609 M-128.749,327.466c0,0,41.526-1.646,52.728-3.526
			C-76.021,323.939-118.467,325.287-128.749,327.466 M-74.185,321.048c0.606,0.01,1.207,0.023,1.813,0.038
			c4.004-0.411,8.029-0.834,11.717-1.088c0.228-0.133,0.437-0.25,0.572-0.312c-0.218-0.066-0.438-0.125-0.659-0.177
			C-65.029,318.497-69.589,319.654-74.185,321.048 M-31.104,321.999c-13.137-2.329-37.314,2.433-37.314,2.433
			c7.18-1.338,21.188-1.78,31.081-1.903c7.525-0.083,11.863,0.41,11.656,0.36C-25.801,322.858-27.516,322.64-31.104,321.999
			 M430.649,445.324c0.48,0.659,0.959,1.314,1.448,1.968c-0.081,0.446-0.159,0.883-0.242,1.327c0.036,0.092,0.074,0.187,0.107,0.276
			c0.211,0.042,0.432,0.078,0.646,0.119c-0.831-7.966-4.078-14.647-6.672-22.427C427.197,433.707,428.773,439.889,430.649,445.324
			 M405.199,407.632c-0.005,0.264-0.008,0.529-0.009,0.8c0.97,3.272,1.995,6.303,3.058,9.146c-0.754-3.315-1.494-6.631-2.244-9.935
			C405.73,407.639,405.462,407.631,405.199,407.632 M421.533,405.788c-0.239,8.597,1.391,15.376,3.43,21.486
			c-1.125-6.368-2.008-13.482-2.629-21.481C422.072,405.792,421.803,405.789,421.533,405.788 M97.281,259.653
			c0.247-0.541,0.5-1.091,0.752-1.631c-0.344-0.423-0.682-0.849-1.018-1.263C97.098,257.719,97.202,258.683,97.281,259.653
			 M101.391,259.283c0.52-1.623,1.04-3.265,1.56-4.893C101.414,255.857,100.812,255.708,101.391,259.283 M495.91,325.269
			c-0.064,0.244-0.134,0.486-0.202,0.732c2.869,0.59,5.745,1.178,8.613,1.764c-1.746-0.821-3.588-1.633-5.575-2.103
			C497.834,325.448,496.89,325.305,495.91,325.269 M444.848,312.859c-0.066,0.26-0.137,0.519-0.204,0.773
			c2.872,0.762,5.74,1.525,8.61,2.289c-1.691-1.002-3.384-2.002-5.075-3.003C447.067,312.9,445.951,312.879,444.848,312.859
			 M604.715,349.189c1.06,0.004,2.128,0.013,3.176,0.012c-0.973-0.273-1.959-0.549-2.942-0.827
			C604.874,348.644,604.791,348.911,604.715,349.189 M427.686,301.679c0.514,0.131,1.042,0.279,1.563,0.414
			c2.512,2.509,8.561,5.806,12.904,5.078c-2.144-1.395-4.289-2.788-6.438-4.189c-2.607-0.692-5.216-1.39-7.823-2.08
			C427.822,301.163,427.753,301.416,427.686,301.679 M581.71,329.844c-0.085,0.271-0.158,0.545-0.236,0.814
			c4.896,1.551,11.742,3.021,14.921,0.697C591.495,330.844,586.599,330.341,581.71,329.844 M394.388,279.613
			c-0.692-2.198-1.394-4.402-2.087-6.601c-0.51-0.171-1.024-0.341-1.529-0.508C391.978,274.875,393.178,277.241,394.388,279.613
			 M379.635,273.996c0.361,0.488,0.721,0.97,1.084,1.455c-0.325-5.264-0.651-10.535-0.977-15.795
			C379.707,264.437,379.676,269.217,379.635,273.996 M380.549,256.426c0.24,0.719,0.48,1.445,0.712,2.163
			c0.132-0.838,0.251-1.668,0.378-2.504C381.276,256.197,380.91,256.31,380.549,256.426 M173.604,188.033
			c1.562,0.72,3.127,1.44,4.689,2.154c5.484-0.972,10.978-1.95,16.464-2.923c-0.603-0.245-1.199-0.441-1.824-0.586
			C189.498,185.867,185.159,186.483,173.604,188.033 M79.413,154.71c-0.795-1.416-1.598-2.843-2.397-4.257
			C77.041,152.473,76.549,152.795,79.413,154.71 M198.997,186.799c-0.002,0.597,0.003,1.199,0.012,1.798
			c0.236,0.118,0.481,0.239,0.725,0.356c3.333-4.299,7.568-7.502,11.946-10.719C207.253,180.688,202.575,183.218,198.997,186.799
			 M83.461,139.322c5.221,9.567,14.75,20.457,14.75,20.457c-3.821-4.453-9.892-14.095-14.046-20.988
			C86.438,142.563,85.315,142.465,83.461,139.322 M302.88,188.525c1.022,1.65,2.323,3.769,3.925,6.354
			c-0.359-1.902-0.721-3.809-1.079-5.716c-0.76-0.399-1.512-0.792-2.272-1.193C303.267,188.153,303.076,188.341,302.88,188.525
			 M371.958,203.224c0.828,0.215,1.649,0.427,2.474,0.643c1.461-1.276,2.934-2.55,4.409-3.817
			C376.543,201.104,374.245,202.17,371.958,203.224 M233.104,174.022c0.195,0.177,0.395,0.361,0.594,0.543
			c2.273-3.697,4.55-7.404,6.818-11.103C236.936,165.326,235.355,170.239,233.104,174.022 M239.326,162.369
			c0.201,0.185,0.399,0.365,0.604,0.551c0.535-0.59,1.072-1.183,1.608-1.778C240.803,161.555,240.065,161.966,239.326,162.369
			 M73.955,146.986c0,0-15.775-27.971-20.936-34.969C53.02,112.018,68.934,140.741,73.955,146.986 M78.747,133.582
			c0,0-15.774-27.973-20.936-34.968C57.812,98.614,73.728,127.33,78.747,133.582 M267.887,119.365
			c0.193,0.193,0.382,0.384,0.582,0.575c0.561-0.574,1.119-1.147,1.68-1.707c0.012-0.03,0.023-0.052,0.037-0.084
			c-0.376-0.263-0.637-0.585-0.907-0.648C268.923,117.417,268.551,117.787,267.887,119.365 M448.9,155.283
			c0.214,0.139,0.426,0.277,0.647,0.415c4.378-4.415,8.768-8.827,13.154-13.241C458.104,146.729,453.504,151.012,448.9,155.283
			 M474.565,128.377c0.214,0.136,0.432,0.281,0.648,0.413c1.046-1.136,2.085-2.272,3.129-3.41
			C476.378,126.018,476.523,125.991,474.565,128.377 M282.23,75.917c0.844-4.519,1.691-9.032,2.528-13.541
			C281.79,65.016,281.402,71.55,282.23,75.917 M288.226,60.825c0.167-0.173,0.333-0.343,0.505-0.51
			c0.17-0.943,0.336-1.879,0.502-2.82c0.396-4.39,0.793-8.776,1.195-13.165C289.184,46.746,288.229,56.611,288.226,60.825
			 M513.855,103.757c1.533,2.707,2.091,1.91,0.348,6.563c0.219,0.146,0.435,0.283,0.647,0.421c4.05-4.682,8.265-6.461,9.147-11.303
			C519.986,98.918,517.008,100.459,513.855,103.757 M315.447,22.425c0.517-1.987,1.041-3.973,1.555-5.956
			C314.969,17.263,315.167,20.054,315.447,22.425 M316.039,6.316c0.531-0.904,1.057-1.805,1.586-2.707
			c-0.252-0.095-0.47-0.162-0.654-0.206C315.268,3.004,316.207,4.523,316.039,6.316"/>
		
			<radialGradient id="SVGID_5_" cx="168.3335" cy="361.666" r="377.4344" gradientTransform="matrix(0.9733 0.2297 -0.2297 0.9733 144.8703 -18.0184)" gradientUnits="userSpaceOnUse">
			<stop  offset="0" style="stop-color:#FFE467"/>
			<stop  offset="1" style="stop-color:#FAA93D"/>
		</radialGradient>
		<path id="SVGID_3_" fill="url(#SVGID_5_)" d="M236.208,665.316c0.001-0.004-0.005-0.005-0.003-0.009
			C236.205,665.312,236.209,665.313,236.208,665.316 M236.205,665.308c-0.006-0.021-0.013-0.069-0.027-0.142
			C236.186,665.214,236.195,665.26,236.205,665.308 M-49.174,339.622c2.444,0.981,3.711,1.085,5.565,0.333
			C-45.463,339.826-47.32,339.719-49.174,339.622 M41.13,300.597c2.099,0.001,4.206,0,6.314-0.001
			c8.327-3.949,16.226-2.998,24.83-9.642C61.897,294.16,51.514,297.382,41.13,300.597 M422.973,366.912
			c10.204-2.426,20.412-4.856,30.617-7.287c-1.335-0.518-2.639-0.922-3.914-1.223C439.979,356.111,431.756,359.831,422.973,366.912
			 M463.928,351.768c-0.393,0.448-0.791,0.891-1.183,1.335c1.039,0.28,2.09,0.557,3.126,0.829c1.055-0.819,2.106-1.641,3.153-2.465
			C467.323,351.565,465.631,351.665,463.928,351.768 M599.765,339.236c0.036-0.003-0.003-0.019-0.025-0.024
			C599.718,339.208,599.707,339.21,599.765,339.236 M248.325,713.645L248.325,713.645 M70.388,498.163
			c0.118-0.199,0.229-0.398,0.344-0.603c0.96-0.465,1.923-0.944,2.882-1.413c0.225,0.418,0.447,0.833,0.67,1.24
			c-1.126,0.369-2.256,0.733-3.381,1.093C70.732,498.377,70.56,498.267,70.388,498.163 M294.527,514.346
			c-2.096,3.365-3.93,6.647-7.098,8.584C288.988,518.484,291.116,516.195,294.527,514.346 M94.662,432.196
			c1.904-1.232,1.406-2.899,3.468-3.813c0.166,3.39,0.331,6.768,0.501,10.148C95.83,437.071,96.104,435.308,94.662,432.196
			 M99.729,445.646c-1.124-5.869-0.821-21.788,0.213-31.141c-0.187-0.98-0.376-1.958-0.557-2.954
			c0.38,0.372,0.762,0.755,1.141,1.132c-0.198,0.606-0.391,1.22-0.583,1.822c0.38,0.379,0.759,0.75,1.136,1.13
			c0.377,11.24,1.957,18.622,0.375,29.299c0.186,0.598,0.376,1.183,0.562,1.769C101.259,446.352,100.498,446.001,99.729,445.646
			 M440.086,480.037c0.266,0.051,0.53,0.106,0.796,0.156c2.581,3.527,5.16,7.057,7.743,10.576
			C444.33,488.023,440.341,485.618,440.086,480.037 M-91.461,332.455c1.16-0.409,2.308-0.797,3.454-1.188
			c5.232,0.771,10.469,1.555,15.701,2.34c-4.554,1.333-9.412,1.703-14.24,0.564C-88.192,333.782-89.836,333.219-91.461,332.455
			 M388.766,411.56c-0.604,17.898,19.955,49.918,33.375,58.367c-0.188,1.047-0.383,2.099-0.57,3.147
			c-0.535-0.098-1.064-0.202-1.598-0.293c-0.317,0.214-0.633,0.426-0.947,0.64C410.617,468.479,381.078,424.279,388.766,411.56
			 M432.506,338.388c1.633,0.151,3.267,0.311,4.902,0.463c-1.393,0.44-2.137,0.686-2.998,0.48
			C433.879,339.208,433.305,338.912,432.506,338.388 M414.411,321.154c-2-1.907-4.015-3.821-6.024-5.735
			c0.525,0.143,1.047,0.277,1.561,0.416c2.867,1.86,5.727,3.728,8.584,5.591c-0.062,0.254-0.132,0.517-0.196,0.776
			C417.025,321.851,415.725,321.506,414.411,321.154 M403.937,308.885c0.458,0.399,0.905,0.796,1.365,1.194
			c-1.378-0.092-2.749-0.18-4.119-0.259C402.099,309.504,403.016,309.197,403.937,308.885 M474.128,333.319
			c14.724,3.145,31.035,1.22,43.598,0.479c-4.495,3.763-25.705,4.749-37.415,1.987C477.659,335.158,475.496,334.341,474.128,333.319
			 M562.556,342.61c-6.834,0.71-12.521,0.625-19.348,1.349C548.249,340.872,555.841,341.883,562.556,342.61 M534.205,340.208
			c0.393-0.477,0.796-0.947,1.203-1.42c5.457,0.37,10.922,0.736,16.388,1.106c-5.45,0.514-10.893,1.031-16.354,1.543
			C535.034,341.034,534.617,340.62,534.205,340.208 M572.773,336.144c5.802,1.051,7.355,0.904,13.161,1.951
			c0.5,1.027,3.489,0.973,3.994,1.997c-7.259-0.583-14.517-1.162-21.778-1.744c-0.26-0.952-0.521-1.906-0.776-2.862
			c0.603-0.271,1.652,0.029,2.701,0.331c0.351,0.1,0.701,0.198,1.033,0.277C571.773,336.252,572.369,336.322,572.773,336.144
			 M116.654,199.806c0.186-0.182,0.384-0.367,0.576-0.547c0.749,0.782,1.497,1.565,2.238,2.344c0.551,0.969,1.1,1.935,1.656,2.898
			c-0.195,0.185-0.395,0.365-0.587,0.549C119.245,203.302,117.946,201.554,116.654,199.806 M103.847,181.682
			c0.935,0.602,1.877,1.198,2.813,1.801c2.581,4.246,5.157,8.5,7.737,12.748c-0.195,0.184-0.397,0.367-0.585,0.558
			C110.483,191.749,107.168,186.719,103.847,181.682 M329.89,222.886c1.569-0.682,3.144-1.37,4.718-2.045
			c0.846,0.132,5.409,9.614,6.236,9.83c-0.439,0.248-0.894,0.293-1.355,0.185C336.652,230.186,333.427,223.722,329.89,222.886
			 M352.122,220.738c1.052,0.362,2.104,0.727,3.155,1.089c-3.114,0.842-6.232,1.687-9.355,2.529
			C347.988,223.148,350.055,221.941,352.122,220.738 M88.357,157.306c0.935,0.981,1.866,1.955,2.793,2.932
			c2.547,6.738,10.735,13.59,10.433,20.234C97.179,172.753,92.771,165.027,88.357,157.306 M281.165,199.443
			c2.551-5.692,1.704-8.105,4.017-10.414c1.695,10.057,13.502,15.055,16.617,25.495C295.37,207.671,287.365,211.116,281.165,199.443
			 M255.949,173.828c-2.65,5.984-8.674,14.998-15.025,17.7c-0.559,0.212-1.113,0.421-1.675,0.632
			C244.814,186.054,250.385,179.938,255.949,173.828 M292.287,171.559c0.379,0.376,0.77,0.754,1.154,1.134
			c0.836,6.074,1.67,12.146,2.51,18.222C294.727,184.46,293.504,178.008,292.287,171.559 M289.988,154.887
			c0.198,0.2,0.387,0.389,0.576,0.573c0.232,3.229,0.458,6.45,0.695,9.684C289.127,161.449,289.246,158.505,289.988,154.887
			 M310.301-6.95c-8.229,28.567-14.413,42.001-19.487,70.685c-0.077,0.844-0.151,1.689-0.234,2.538
			c-0.088,0.094-0.177,0.184-0.269,0.281c-0.084,0.445-0.162,0.891-0.244,1.343c-0.083-0.082-0.17-0.166-0.254-0.252
			c0.021,0.921,0.111,1.439,0.268,1.336c-0.116,0.679-3.427,3.576-4.683,8.773c0.803-1.529,1.603-3.056,2.405-4.588
			c-1.039,3.255-2.084,6.502-3.123,9.754c-0.084-0.391-0.167-0.788-0.251-1.181c-4.265,4.972-4.202,15.455-4.587,16.214
			c-1.938,3.836-3.553,15.567-4.935,22.014c-2.944,13.679-7.542,12.729-8.013,10.786c-0.391-0.76-0.778-1.516-1.169-2.275
			c0.021,1.515,0.038,3.034,0.06,4.553c-3.674,5.116-5.848,8.66-5.518,13.671l-1.777,15.51
			c-33.686,59.532-121.275,53.098-153.23,7.896c-11.75-16.617-11.201-3.256-30.643-38.647
			c-9.037-16.453-34.571-53.476-36.854-54.666c11.259,14.184,11.271,24.243,20.802,37.175l8.581,13.525
			c8.272,15.982,22.55,30.474,24.517,48.164l1.603,5.167c19.129,31.304,26.417,47.691,16.014,77.063
			c-4.592,12.961-3.483,27.416-3.182,27.859c-8.342,3.853-19.829,6.833-30.57,13.363c-34.011,5.867-77.223,40.702-112.105,29.181
			c-2.726-1.17-7.685-1.204-13.483-0.813c-0.505,0.298-1.612-0.098-2.595-0.463c-0.788-0.294-1.494-0.57-1.742-0.445
			c-2.854-0.395-5.812-0.575-8.818-0.651c-0.974,0.099-1.947,0.195-2.912,0.292c-1.027,0.316-2.06,0.639-3.086,0.944
			c4.863-0.041,9.708,0.173,14.45,2.047c-5.73-0.434-11.468-0.859-17.199-1.299c-4.779,1.193-6.86,2.001-11.192-0.615
			c-2.687-0.204-6.543,1.813-9.228,1.609c-3.948,1.011-5.896,0.27-7.842-0.472c-1.944-0.738-3.89-1.479-7.836-0.472
			c-0.136-0.345-1.696,0.407-3.259,1.158c-1.566,0.755-3.135,1.508-3.27,1.154c0.656-0.815,1.309-1.641,1.965-2.457
			c-0.94,0.12-1.866,0.256-2.8,0.37c-7.289,0.22-16.899,3.014-24.174,3.228c7.097,0.537,14.204,1.069,21.312,1.614
			c-5.616,0.729-11.222,1.461-16.839,2.197c0.742,0.645,1.493,1.275,2.237,1.905c18.813,3.159,38.315,3.546,57.12,6.715
			c-5.17-2.625-11.428-3.147-17.053-3.528c-3.909-0.262-7.513-0.448-10.24-1.222c1.615-0.45,3.232-0.909,4.855-1.365
			c17.06,1.271,33.057,1.081,49.033,1.898c-0.336-0.135-0.696-0.284-1.081-0.455c0.216-0.271,0.437-0.55,0.661-0.821
			c2.834,0.111,5.666,0.229,8.499,0.355c-0.993,0.544-1.797,0.959-2.514,1.254c7.135,0.481,14.288,1.227,21.552,2.448l0.032,0.01
			c2.089,0.294,4.272,1.085,6.506,2.142c3.082,1.466,6.262,3.435,9.425,5.31c15.878-3.034,60.78,14.836,68.409,22.273
			c7.633,7.435,7.969,14.794,12.947,19.681c4.975,4.893,12.977,24.59,12.157,31.792c0.285-0.193,0.575-0.396,0.863-0.594
			c-0.209,2.607-0.415,5.211-0.628,7.823c-0.292-0.749-0.579-1.498-0.865-2.248c-1.818,13.241,0.125,27.412-2.424,29.605
			c1.314,0.065-4.838-0.697-7.757,9.203c-0.264,0.895-0.545,1.806-0.839,2.721c-1.792,5.538-7.055,9.786-10.169,15.063
			c-0.315,0.538-0.639,1.065-0.964,1.575c-1.931,3.031-4.045,5.642-6.326,7.541c-6.604,6.762-12.973,14.386-19.277,21.433
			c-8.276,7.059-16.555,14.13-24.836,21.19c0.496-0.001,0.993-0.005,1.478-0.013c7.521-7.422,20.747-16.262,29.719-19.258
			c-0.348,0.677-0.678,1.343-1.028,2.013c-27.314,26.378-36.004,27.587-63.315,63.43c0.499-0.007,0.986-0.012,1.481-0.016
			c11.083-9.204,7.517-6.238,18.601-15.441c0.191,0.111,0.375,0.229,0.569,0.331c-0.38,1.228-0.763,2.444-1.15,3.669
			c9.59-15.393,22.235-23.035,33.407-33.852c0.191,0.112,0.38,0.215,0.567,0.333c-0.539,1.226-0.888,1.846-1.097,2.14
			c0.231-0.034,0.611,0.209,1.013,1.483c0.191,0.113,0.381,0.221,0.571,0.331c1.566-5.449,1.711-1.546,3.274-6.998
			c0.629-0.801,25.25-18.691,29.49-20.243c-0.648,2.794-0.543,2.241-0.014,4.328c4.87-6.212,9.79-7.296,16.548-8.503
			c-1.023-0.009-2.062,0.052-3.111,0.193c3.806-3.256,10.965-4.28,18.509-1.999c0.622,0.082,1.248,0.131,1.878,0.174
			c4.202-0.531,8.773-1.018,14.132-1.14c9.467-1.607,17.479-6.197,27.61-3.421c5.222,1.442,31.116,9.153,36.614,15.501
			c-9.126-4.315-35.874-13.64-44.762-13.465c4.736,0.653,14.456,4.002,23.665,7.236c8.036,2.818,15.688,5.551,19.309,6.315
			c8.336,1.765,25.311,27.636,26.738,32.992c-1.513-0.508-3.141-2.403-4.645-2.918c0.506,0.172,1.122,1.719,1.621,1.896
			c3.33,4.165,6.66,8.329,9.976,12.499c5.825,10.86,12.491,38,16.926,50.648c0.903,7.126,2.038,21.663,3.168,28.391
			c0.253,0.069,3.885,19.691,4.243,21.604c-0.954-5.446,8.219-7.966,1.07-22.619c5.635,11.552,8.318,5.98,8.598,20.176
			c0.135-2.245,0.551-4.306,1.607-5.918c-0.279,5.759-0.49,11.709-0.59,18.541c-0.34-0.102-0.671-0.208-1.014-0.309
			c0.129-2.265-0.936-4.776-1.121-7.315c0.167,7.445-4.217,15.799-4.854,26.319c-0.996,16.568-5.022,42.923-2.11,52.053
			c1.484-5.993,8.824-25.692,10.486-32.136c-4.683,18.743-6.35,50.933,1.877,64.721c0.523-0.479,1.041-0.964,1.551-1.452
			c-0.045-9.288-0.949-18.723,0.408-26.61c0.484,0.825,0.975,1.653,1.455,2.473c4.781-46.916,3.782-59.014,8.035-98.631
			c3.818-23.62-1.936-52.716,1.878-76.34c-1.312,2.645-0.983,2.233-2.669,3.379c2.855-10.916,18.66-51.394,27.074-56.066
			c-1.035,1.526,0.613,1.472,2.656,1.51c1.809,0.036,3.931,0.142,4.75,1.488c0.266,0.034,4.41-4.558,4.673-4.523
			c2.017-12.238,10.626-22.066,19.597-26.116c-0.604,0.914-9.77,18.552-10.379,19.47c0.6-0.068,1.206-0.144,1.8-0.22
			c1.308-1.204,7.602-0.395,9.438-1.59l4.273-2.534c5.53-3.054,11.789-6.009,15.127-9.879c-6.271,0.248-9.797,3.503-14.995,5.379
			c3.714-5.924,24.575-11.193,35.101-14.223c-2.396,0.565-6.262,0.643-8.58,1.076c0.057-0.252,0.099-0.519,0.146-0.779
			c23.861-17.521,94.9,7.949,131.098,24.869c4.38,2.811,7.895,3.461,11.41,4.117c3.518,0.65,7.03,1.302,11.412,4.108
			c12.468,6.799,29.102,18.93,41.216,20.733c-0.158-0.585-0.308-1.156-0.469-1.734c-14.216-7.415-26.139-18.703-37.42-28.117
			c-0.462-0.1-0.925-0.191-1.386-0.284c0.048-0.241,0.106-0.489,0.153-0.738c-0.47-0.391-0.941-0.779-1.405-1.159
			c-35.159-28.529-61.582-32.345-75.092-66.7c-0.044-0.007-0.099-0.02-0.149-0.03c0.011-0.082,0.028-0.163,0.043-0.245
			c-0.409-1.063-0.813-2.167-1.208-3.3c-9.966-13.691-18.482-29.4-16.775-50.021c-1.16,9.264-3.115,19.715-2.826,24.918
			c-0.244-0.001-0.497-0.007-0.744-0.011c7.89,20.884,20.346,39.085,29.973,58.979c-0.051,0.258-0.112,0.516-0.16,0.779
			c-1.863-0.384-3.712-0.763-5.559-1.145c-1.316-13.109-21.91-30.947-24.912-43.779c-3.74-16.013-39.408-54.925,8.46-76.396
			c0,0,55.946-14.909,65.777-16.239c-1.727,1.563-3.518,3.048-5.338,4.479c6.27-3.683,12.083-6.129,16.983-6.984
			c5.573-0.968,45.032,10.285,43.042,5.721c-2.354,0.365-4.146-0.602-5.942-1.571c-1.791-0.968-3.584-1.936-5.944-1.573
			c0.724-0.678,4.236-0.152,4.96-0.835c2.6-0.292,3.947,0.447,5.283,1.185c1.342,0.739,2.686,1.477,5.286,1.184
			c-0.148,0.535-0.3,1.069-0.451,1.598c10.17,1.254,51.415,3.325,58.167,1.127c-8.642-0.389-9.431-1.891-18.074-2.277
			c9.977-4.075,6.824-4.474,18.31-0.7c-0.894,0.337-1.784,0.666-2.679,1.009c5.178,1.313,7.758,0.565,6.746-1.479
			c0.075-0.271,0.148-0.541,0.235-0.816c1.454-0.47,2.915-0.932,4.374-1.403c-6.48-1.91-7.861-2.407-8.097-2.515
			c-0.109,0.011-0.972-0.09-5.506-1.063c-1.915-0.411-3.831-1.342-5.95-2.324c-2.343-1.08-4.927-2.224-8.008-2.775
			c-11.415-0.001-21.367-0.56-32.775-0.552c0.372,1.394,1.992,1.92,0.28,1.837c-5.738,2.009-20.965,4.153-26.897-0.549
			c3.251-0.253,11.271-2.617,14.521-2.869c-7.095-0.241-14.184-0.484-21.279-0.726c-1.671-0.313-7.015-1.125-8.815-1.974
			c-0.313,0.341-0.624,0.68-0.941,1.021c-7.727-1.374-13.356-2.841-18.84-4.276c-6.786-1.773-13.359-3.497-23.413-4.931
			c-2.563,0.436-10.859,9.626-13.275,10.248c-8.557,2.168-33.871-11.196-39.672-17.99c8.746,3.869,28.988,10.896,39.101,9.74
			c-0.528-0.138-1.039-0.281-1.569-0.421c-4.26-5.428-14.402-10.517-21.451-13.977c-0.059,0.258-0.133,0.517-0.196,0.777
			c0.905,0.792,1.817,1.578,2.718,2.377c-9.658-2.058-23.791-1.287-26.071-8.728c1.982,1.492,4.595,1.436,7.208,1.38
			c2.606-0.058,5.217-0.112,7.199,1.378c-5.873-8.458-13.953-11.505-19.83-19.963c-0.465,0.702-0.926,1.412-1.392,2.118
			c3.12,6.663,0.521,5.551,2.841,11.521c-3.176-2.783-5.924-5.681-8.292-8.682l-0.167-0.208
			c-23.59-30.168-13.824-46.43,22.863-84.005c-0.141-0.088-0.279-0.175-0.414-0.269c0.119-0.265,0.207-0.489,0.261-0.69
			c0.433-0.039,0.711,0.057,0.683,0.415c1.3-1.328,2.621-2.655,3.965-3.986c7.314-7.263,18.551-17.538,27.459-26.447
			c5.432-5.441,60.809-51.475,68.61-56.169c-5.556-1.347-22.578,12.619-27.319,13.474c0.851-1.816,2.691-2.398-0.06-2.758
			c5.6-6.063,14.259-10.034,17.114-17.932c-19.325,12.179-69.431,70.052-85.463,72.527c-1.34-2.028,0.839-1.714-1.537-1.893
			c-4.814,4.138-9.636,8.272-14.449,12.407c-3.722-3.745-4.707-4.945-9.478-5.215c-0.412,0.641-0.824,1.281-1.237,1.924
			c1.746,2.028,3.491,4.061,5.23,6.095c-0.135,0.212-0.275,0.423-0.414,0.635c-3.226,3.761-4.423,2.34-5.759,0.883
			c-0.819-0.89-1.687-1.796-3.114-1.526c-0.152,0.606-0.396,1.317-0.413,1.759c-0.574-0.206-0.72-0.762-0.743-1.325
			c-0.412,0.22-0.855,0.511-1.352,0.908c-10.277,8.33-14.305,15.121-24.238,19.583c-0.682-0.442-1.362-0.878-2.039-1.316
			c0.553-1.861,5.664-6.078,6.224-7.942c-1.526,1.875-12.321,5.461-11.656,4.938c3.179-1.438,4.99-4.267,8.163-5.709
			c-16.482,5.641-41.72,10.757-57.952-14.444c-0.009,1.522-0.832,5.203-0.849,6.72c-15.789-50.157-7.693-74.483-1.377-120.755
			c2.539-13.18,5.08-26.359,7.622-39.532c-1.126,0.966-1.52,2.252-1.62,0.536c5.742-12.914,3.056-26.085,5.078-40.68
			c-0.547-0.188,0.297-7.156-0.251-7.332C310.652-7.311,310.473-7.127,310.301-6.95"/>
		<path fill="#231F20" d="M276.625,7.378c0,0,5.797-20.266,1.516-21.751c-2.867-0.994-4.101,4.519-4.435,10.027
			c-0.161,2.705-0.565,8.029-0.896,10.013C272.477,7.654,275.669,11.604,276.625,7.378"/>
		<path fill="#231F20" d="M575.099,338.354c8.928,1.046,15.277,2.562,17.598,4.987c2.317,2.43-6.621,1.998-13.217,1.172
			C572.895,343.688,566.172,337.31,575.099,338.354"/>
		<path fill="#231F20" d="M245.615,744.529c0.273,3.08,0.12,3.987-0.504,7.078c-0.627,3.092-1.166,6.09-2.113,5.937
			c-0.943-0.159-0.99-4.652-0.93-7.475c0.063-2.823,0.827-5.097,1.164-5.813C243.57,743.543,245.516,743.41,245.615,744.529"/>
		<path fill="#231F20" d="M-19.274,574.04c-1.226,0.602-2.215,0.95-4.147,2.899c-1.932,1.948-3.51,4.755-2.986,5.179
			c0.706,0.565,3.158-0.109,6.129-2.781c2.97-2.675,2.819-3.99,2.819-3.99L-19.274,574.04z"/>
		<path fill="#231F20" d="M-119.189,330.537c-1.503-0.365-6.69-1.903-10.689-1.422c-4.001,0.489-12.52,2.536-12.995,4.245
			c-0.475,1.709,8.976,2.513,14.122,2.474c5.149-0.04,10.315-2.167,10.315-2.167L-119.189,330.537z"/>
		<path fill="#231F20" d="M224.545,486.966c-0.058-0.118-0.113-0.235-0.168-0.349c-10.599-0.413-21.175-1.688-31.61-3.625
			c0.031,0.016,0.063,0.032,0.098,0.043C203.305,485.076,213.906,486.452,224.545,486.966"/>
		<path fill="#231F20" d="M224.376,486.617c3.711,0.146,7.423,0.189,11.137,0.111c-2.599-3.975-4.623-8.735-5.686-14.431
			C227.313,458.82,217.671,472.687,224.376,486.617"/>
		<path fill="#231F20" d="M232.721,496.564c2.152,0.496,4.354,0.969,6.426,1.327l0.034,0.01c2.536,0.435,4.239,2.854,3.796,5.39
			c-0.437,2.538-2.853,4.238-5.389,3.796c-0.008-0.001-0.044-0.008-0.053-0.009c-0.057-0.008-0.105-0.02-0.164-0.033
			c-22.638,7.439-20.857,29.064-12.361,17.032c10.373-14.702,39.633-17.141,45.191-17.471c0.303,0.004,0.594,0.016,0.9,0.022
			c0,0-0.166-0.012-0.469-0.049c0.316-0.016,0.491-0.021,0.491-0.021c-2.438-0.494-4.771-0.877-7.009-1.167
			c-7.851-1.92-20.512-6.692-28.295-18.218c-3.761,0.045-7.52-0.025-11.275-0.208C226.217,490.3,228.834,493.624,232.721,496.564"/>
		<path fill="#231F20" d="M224.376,486.617c0.055,0.113,0.111,0.23,0.168,0.349c3.756,0.183,7.514,0.254,11.275,0.208
			c-0.102-0.147-0.209-0.29-0.307-0.445C231.8,486.807,228.088,486.763,224.376,486.617"/>
		<path fill="#231F20" d="M369.784,323.549c-3.657-19.017-11.113-37.335-21.962-53.442c-5.415-8.058-11.664-15.554-18.609-22.348
			c-3.471-3.398-7.115-6.617-10.916-9.653c-1.893-1.515-3.838-2.988-5.803-4.406c-1.968-1.436-4.032-2.798-6.129-4.065
			c-8.4-5.061-17.517-8.766-26.856-11.505c-9.353-2.731-18.964-4.486-28.639-5.41c-19.354-1.825-39.032-0.403-57.923,4.424
			c-9.442,2.42-18.681,5.718-27.495,9.956c-8.816,4.235-17.203,9.423-24.875,15.556c-7.671,6.125-14.612,13.2-20.559,21.041
			c-5.952,7.838-10.909,16.427-14.788,25.458c-3.891,9.034-6.715,18.494-8.61,28.106c-1.898,9.616-2.869,19.385-3.11,29.142
			c-0.25,9.745,0.24,19.586,1.716,29.294c1.46,9.711,3.886,19.312,7.339,28.548c3.449,9.238,7.92,18.106,13.3,26.381
			c5.377,8.278,11.645,15.963,18.575,22.955c13.878,14.009,30.288,25.231,47.733,34.056c8.733,4.416,17.751,8.239,26.964,11.5
			c4.609,1.635,9.266,3.125,13.979,4.462c2.356,0.673,4.723,1.299,7.114,1.887c2.352,0.567,4.659,1.102,7.14,1.562
			c0.059,0.014,0.107,0.025,0.163,0.037c0.01-0.003-0.05,0.788-0.042,0.787c2.537,0.442,5.828-1.944,6.268-4.483
			c0.441-2.535-1.946-5.829-4.484-6.269l-0.035-0.006c-2.066-0.358-4.367-0.051-6.52-0.547c-0.111-0.026-0.226-0.053-0.337-0.078
			c-2.275-0.531-4.547-1.108-6.812-1.725c-4.525-1.234-9.02-2.621-13.469-4.142c-6.526-2.229-12.951-4.763-19.239-7.585
			c-0.811-0.158-1.622-0.313-2.433-0.483c0.776,0.151,1.557,0.298,2.335,0.44c-2.254-1.015-4.489-2.062-6.705-3.152
			c-16.846-8.287-32.612-18.854-45.901-31.983c-6.64-6.559-12.635-13.751-17.789-21.505c-5.159-7.755-9.467-16.063-12.819-24.759
			c-3.356-8.694-5.759-17.768-7.25-27.003c-1.5-9.243-2.083-18.63-1.932-28.055c0.14-9.415,0.98-18.813,2.704-28.031
			c1.722-9.224,4.33-18.269,7.942-26.892c3.602-8.626,8.226-16.816,13.798-24.313c5.57-7.496,12.093-14.285,19.352-20.198
			c14.52-11.859,31.874-20.133,50.081-24.985c18.232-4.853,37.367-6.437,56.211-4.85c9.421,0.808,18.78,2.42,27.866,4.978
			c9.078,2.563,17.913,6.063,25.994,10.822c2.027,1.193,3.979,2.455,5.894,3.829c1.94,1.367,3.829,2.771,5.697,4.231
			c3.726,2.921,7.305,6.019,10.721,9.295c6.831,6.552,12.995,13.802,18.36,21.608c10.741,15.615,18.227,33.459,21.996,52.071
			c3.784,18.614,3.898,37.993,0.232,56.669c-3.65,18.664-11.132,36.637-22.219,52.147c-5.536,7.751-11.953,14.878-19.121,21.166
			c-7.166,6.289-15.08,11.736-23.499,16.232c-8.426,4.494-17.353,8.037-26.556,10.636c-9.201,2.609-18.666,4.283-28.197,5.131
			c-4.031,0.36-8.07,0.569-12.115,0.646c0.098,0.155,0.205,0.298,0.307,0.445c3.953-0.044,7.908-0.211,11.859-0.521
			c9.571-0.76,19.096-2.344,28.375-4.875c9.283-2.521,18.314-6.002,26.858-10.452c8.542-4.452,16.589-9.875,23.9-16.167
			c7.312-6.29,13.89-13.44,19.577-21.239c11.393-15.608,19.17-33.774,23.066-52.701
			C373.369,362.283,373.453,342.564,369.784,323.549"/>
		<path fill="#231F20" d="M553.563,548.942c-39.269-16.723-79.619-30.941-120.902-41.024c-10.332-2.447-20.743-4.544-31.212-6.119
			c-10.464-1.539-20.978-2.749-31.503-3.032c-5.254-0.146-10.51-0.137-15.735,0.195c-5.223,0.328-10.415,0.936-15.527,1.881
			c-10.206,1.921-20.126,5.423-28.442,11.563c-8.428,6.112-15.705,13.76-21.723,22.313c-6.035,8.557-10.842,17.983-14.751,27.768
			c-3.905,9.8-6.927,19.96-9.38,30.265c-2.445,10.315-4.328,20.773-5.867,31.292c-3.08,21.039-4.805,42.295-6.52,63.567
			c-0.867,10.637-1.721,21.285-2.771,31.928c-1.055,10.644-2.289,21.286-4.072,31.869l-0.002,0.005
			c-0.144,0.849-0.947,1.425-1.803,1.276c-0.767-0.126-1.311-0.8-1.303-1.554l0,0c-0.049-9.893-0.424-19.844-0.93-29.762
			c-0.508-9.917-1.203-19.826-2.093-29.718c-1.753-19.78-4.269-39.494-7.817-59.002c-3.572-19.497-8.208-38.821-14.807-57.436
			c-3.314-9.29-7.151-18.392-11.791-27.038c-4.64-8.63-10.099-16.838-16.767-23.875c-6.647-7.041-14.574-12.794-23.637-16.05
			c-9.056-3.409-18.758-5.015-28.487-5.143c-9.742-0.138-19.51,1.154-29.067,3.356c-9.566,2.197-18.938,5.317-28.075,9.024
			c-18.278,7.443-35.63,17.161-52.186,28.021c-16.524,10.942-32.5,22.671-48.379,34.755c3.38-3.684,6.993-7.142,10.675-10.517
			c3.69-3.367,7.478-6.631,11.354-9.788c7.745-6.318,15.833-12.219,24.172-17.749c16.667-11.051,34.174-20.98,52.758-28.658
			c9.291-3.823,18.854-7.062,28.687-9.373c9.827-2.297,19.94-3.655,30.123-3.531c10.163,0.115,20.404,1.781,30.007,5.373
			c4.813,1.745,9.495,4.165,13.723,7.094c4.251,2.925,8.126,6.339,11.641,10.049c7.032,7.443,12.673,15.984,17.444,24.874
			c4.764,8.912,8.666,18.216,12.029,27.679c3.358,9.463,6.146,19.104,8.563,28.82c2.414,9.717,4.447,19.516,6.202,29.357
			c3.497,19.685,5.841,39.541,7.458,59.433c1.563,19.907,2.455,39.826,2.328,59.832l0,0l-3.105-0.268
			c1.693-10.482,2.844-21.066,3.816-31.673c0.967-10.611,1.746-21.246,2.535-31.892c1.596-21.285,3.232-42.622,6.219-63.848
			c1.504-10.61,3.348-21.19,5.779-31.666c2.435-10.465,5.453-20.839,9.41-30.893c3.951-10.048,8.854-19.799,15.08-28.735
			c6.215-8.923,13.805-16.992,22.637-23.471l1.662-1.192c0.568-0.402,1.133-0.805,1.711-1.187c1.156-0.766,2.339-1.5,3.543-2.184
			c2.406-1.377,4.896-2.592,7.441-3.661c5.094-2.137,10.385-3.695,15.74-4.834c5.353-1.159,10.783-1.815,16.207-2.189
			c5.429-0.361,10.858-0.458,16.27-0.274c21.661,0.727,42.893,4.888,63.662,10.168c10.39,2.671,20.68,5.688,30.873,8.966
			c10.173,3.36,20.245,6.976,30.233,10.805c9.987,3.829,19.903,7.833,29.673,12.175C534.335,539.631,544.06,544.067,553.563,548.942
			"/>
		<path fill="#231F20" d="M37.623,80.694c5.286,7.786,10.751,15.395,16.38,22.866c5.612,7.479,11.413,14.794,17.397,21.931
			c5.999,7.123,12.195,14.064,18.715,20.665c6.522,6.596,13.375,12.839,20.578,18.587c7.18,5.771,14.743,11.035,22.717,15.463
			c7.978,4.398,16.314,8.101,25.006,10.42c8.674,2.332,17.65,3.306,26.524,2.663c8.875-0.642,17.604-2.969,25.772-6.669
			c8.195-3.763,16.075-8.505,23.229-14.075c7.174-5.574,13.66-12.02,19.377-19.126c5.737-7.091,10.709-14.827,15.02-22.948
			c2.155-4.063,4.147-8.223,6.002-12.452c1.866-4.221,3.598-8.517,5.215-12.86c6.462-17.394,11.111-35.521,15.43-53.742
			l6.508-27.388c1.102-4.566,2.223-9.131,3.395-13.69c1.191-4.552,2.427-9.095,3.737-13.617c-0.236-0.202-0.266-0.559-0.063-0.796
			c0.188-0.224,0.51-0.261,0.748-0.103l2.199,1.479c1.123,0.754,1.129,1.357,0.994,1.939l-0.266,1.768
			c-0.189,1.176-0.391,2.35-0.621,3.521c-0.456,2.34-0.99,4.669-1.529,6.996c-0.539,2.331-1.062,4.658-1.504,7
			c-0.445,2.338-0.791,4.695-1.128,7.05l-4.208,28.245c-2.777,18.825-5.534,37.658-7.652,56.52
			c-1.045,9.428-1.93,18.864-2.398,28.29c-0.446,9.42-0.494,18.854,0.506,28.097c0.52,4.612,1.256,9.182,2.429,13.596
			c1.175,4.41,2.776,8.673,4.946,12.583c2.16,3.907,4.874,7.466,8.133,10.481c3.245,3.023,7.006,5.509,11.061,7.485
			c1.007,0.497,2.052,0.967,3.078,1.396c0.949,0.392,2.002,0.751,3.035,1.041c2.088,0.586,4.269,0.956,6.487,1.153
			c4.44,0.392,9.015,0.103,13.562-0.565c9.104-1.365,18.084-4.192,26.83-7.56c17.539-6.769,34.216-15.888,50.428-25.662
			c8.098-4.914,16.037-10.101,23.883-15.444c7.84-5.338,15.553-10.877,23.139-16.589c15.193-11.399,29.91-23.464,43.909-36.371
			c-13.228,13.706-27.546,26.354-42.342,38.382c-14.853,11.967-30.271,23.264-46.364,33.587
			c-8.039,5.173-16.254,10.09-24.688,14.644c-8.438,4.551-17.074,8.775-26.016,12.396c-8.947,3.58-18.209,6.606-27.928,8.176
			c-4.856,0.766-9.838,1.149-14.891,0.759c-2.521-0.198-5.061-0.593-7.56-1.269c-1.26-0.343-2.469-0.734-3.726-1.238
			c-1.172-0.478-2.295-0.988-3.428-1.537c-4.492-2.188-8.771-4.987-12.498-8.448c-3.725-3.451-6.891-7.533-9.288-11.976
			c-2.41-4.439-4.128-9.176-5.357-13.965c-1.222-4.794-1.984-9.656-2.398-14.507c-0.839-9.713-0.575-19.372,0.079-28.94
			c0.671-9.572,1.779-19.071,3.066-28.529c1.289-9.46,2.751-18.877,4.266-28.28l4.561-28.189c1.508-9.397,2.973-18.796,4.413-28.199
			c0.364-2.349,0.72-4.699,0.964-7.068c0.25-2.363,0.408-4.743,0.549-7.127c0.137-2.379,0.275-4.76,0.48-7.132
			c0.1-1.185,0.227-2.366,0.366-3.547l0.225-1.768c0.029-0.596,0.197-1.175,1.482-1.596l2.882,0.579
			c-4.394,18.188-7.863,36.605-11.645,55.024c-3.893,18.386-8.154,36.809-14.346,54.778c-1.553,4.49-3.227,8.943-5.053,13.346
			c-1.846,4.395-3.842,8.738-6.018,13.002c-4.352,8.521-9.434,16.731-15.385,24.331c-5.955,7.593-12.805,14.528-20.387,20.556
			c-7.602,6.024-15.838,11.147-24.671,15.271c-8.899,4.086-18.569,6.728-28.421,7.486c-4.92,0.381-9.877,0.33-14.773-0.193
			c-4.897-0.513-9.729-1.461-14.449-2.748c-9.432-2.609-18.413-6.518-26.741-11.385c-8.349-4.844-16.142-10.491-23.474-16.606
			c-7.314-6.157-14.139-12.81-20.612-19.751c-6.472-6.948-12.584-14.199-18.309-21.729c-5.734-7.522-11.074-15.326-16.053-23.343
			C46.205,97.479,41.544,89.266,37.623,80.694"/>
		<path fill="#231F20" d="M514.618,112.273c-14.951,11.043-29.588,22.48-43.786,34.43c-7.082,5.99-14.125,12.026-21.002,18.238
			c-6.884,6.203-13.623,12.563-20.204,19.063c-6.57,6.511-12.949,13.209-19.011,20.159c-6.057,6.956-11.863,14.118-17.041,21.677
			c-5.163,7.552-9.789,15.493-12.921,23.909c-1.571,4.194-2.741,8.513-3.225,12.854c-0.476,4.337-0.255,8.686,0.979,12.736
			c1.221,4.063,3.397,7.846,6.178,11.208c2.771,3.367,6.117,6.337,9.717,8.989c7.243,5.29,15.475,9.364,23.925,12.829
			c8.474,3.451,17.243,6.271,26.119,8.734c8.876,2.457,17.878,4.545,26.933,6.398c18.111,3.7,36.434,6.468,54.82,8.854
			c9.194,1.192,18.404,2.282,27.632,3.355l13.854,1.646c4.623,0.578,9.251,1.159,13.914,1.925c1.481,0.244,2.488,1.64,2.245,3.122
			c-0.238,1.448-1.579,2.438-3.02,2.255l-0.03-0.002c-9.624-1.227-19.392-2.139-29.121-2.877c-9.739-0.733-19.499-1.26-29.257-1.555
			c-19.516-0.57-39.075-0.293-58.434,1.657c-9.672,0.99-19.289,2.409-28.717,4.56c-9.404,2.166-18.666,5.038-27.141,9.327
			c-4.223,2.149-8.236,4.67-11.774,7.678c-3.532,3.009-6.578,6.522-8.756,10.505c-2.194,3.973-3.481,8.394-3.862,12.945
			c-0.363,4.73-0.458,9.572-0.152,14.302c0.316,4.74,1.009,9.438,2.225,14.005c1.211,4.565,2.917,8.991,5.061,13.22
			c4.286,8.481,10.24,16.122,16.883,23.112c6.66,6.995,13.973,13.427,21.59,19.486c7.623,6.067,15.555,11.773,23.621,17.297
			c16.117,11.07,32.85,21.284,49.671,31.347c16.847,10.025,33.94,19.641,51.032,29.279c-17.539-8.797-34.896-17.96-52.098-27.426
			c-17.205-9.454-34.158-19.403-50.659-30.143c-8.229-5.395-16.317-11.029-24.15-17.05c-7.819-6.026-15.428-12.407-22.37-19.565
			c-6.922-7.142-13.258-15.065-17.935-24.073c-2.337-4.493-4.228-9.242-5.579-14.149c-1.353-4.903-2.177-9.947-2.512-14.99
			c-0.345-5.061-0.259-10.05,0.111-15.098c0.426-5.219,1.933-10.423,4.485-15.042c2.53-4.639,6.028-8.651,9.956-11.993
			c3.935-3.351,8.291-6.081,12.798-8.379c9.052-4.581,18.677-7.549,28.365-9.791c9.704-2.222,19.528-3.676,29.364-4.688
			c19.687-1.994,39.447-2.283,59.137-1.724c9.845,0.29,19.678,0.814,29.503,1.546c9.828,0.742,19.6,1.645,29.44,2.89l-0.809,5.375
			c-9.031-1.436-18.301-2.416-27.514-3.521c-9.229-1.081-18.466-2.177-27.697-3.382c-18.463-2.411-36.909-5.208-55.205-8.955
			c-9.148-1.883-18.26-4.001-27.285-6.506c-9.021-2.514-17.972-5.395-26.706-8.957c-8.714-3.584-17.278-7.803-25.059-13.489
			c-3.872-2.853-7.534-6.094-10.671-9.903c-3.131-3.793-5.705-8.21-7.156-13.059c-1.483-4.858-1.693-9.987-1.127-14.859
			c0.565-4.898,1.877-9.607,3.576-14.102c3.474-8.981,8.398-17.146,13.799-24.854c10.882-15.398,23.834-28.999,37.313-41.88
			c6.75-6.442,13.716-12.639,20.807-18.68c7.095-6.036,14.294-11.941,21.653-17.637c7.35-5.711,14.794-11.292,22.325-16.745
			C499.188,122.65,506.836,117.353,514.618,112.273"/>
		<path fill="#231F20" d="M-23.306,576.815c13.527-12.519,26.558-25.679,39.092-39.228c12.507-13.576,24.526-27.618,35.498-42.408
			c5.474-7.397,10.678-14.986,15.386-22.849c4.689-7.856,8.932-15.993,12.032-24.487c1.54-4.239,2.78-8.574,3.489-12.945
			c0.708-4.365,0.872-8.79,0.13-12.992c-0.187-1.05-0.426-2.085-0.729-3.093c-0.146-0.508-0.324-1.017-0.493-1.49l-0.607-1.615
			c-0.804-2.085-1.686-4.185-2.634-6.228c-1.899-4.09-4.079-8.056-6.523-11.845c-4.882-7.583-10.84-14.462-17.566-20.494
			c-6.728-6.038-14.21-11.24-22.133-15.673C15.76,352.597-1.743,346.74-19.585,342.75c-17.88-3.973-36.183-6.1-54.535-7.082
			c-18.363-0.973-36.8-0.784-55.199,0.174l-0.072-6.757c18.887,0.271,37.962-0.24,56.9-1.44c18.952-1.213,37.865-3.129,56.595-6.063
			c18.714-2.957,37.296-6.893,55.227-12.715c8.952-2.925,17.734-6.338,26.106-10.497c8.354-4.162,16.331-9.083,23.252-15.133
			c6.906-6.027,12.706-13.297,16.106-21.634c3.511-8.211,3.864-17.518,2.942-26.704c-0.956-9.211-3.196-18.365-5.956-27.352
			c-2.789-8.99-6.176-17.831-9.898-26.535c-7.46-17.411-16.292-34.268-25.651-50.812c-2.353-4.129-4.721-8.254-7.118-12.361
			c-2.414-4.099-4.829-8.196-7.288-12.271c-4.914-8.148-9.892-16.281-15.004-24.305l-0.006-0.013
			c-0.292-0.457-0.158-1.064,0.3-1.356c0.432-0.273,0.999-0.167,1.307,0.229c5.842,7.603,11.336,15.427,16.65,23.384
			c2.646,3.986,5.26,7.995,7.794,12.055c2.548,4.051,5.047,8.134,7.475,12.259c4.888,8.236,9.524,16.621,13.968,25.116
			c4.434,8.501,8.646,17.128,12.52,25.929c3.867,8.798,7.41,17.766,10.365,26.973c2.948,9.206,5.322,18.671,6.393,28.449
			c0.525,4.884,0.702,9.853,0.276,14.853c-0.212,2.499-0.58,5.004-1.157,7.484c-0.563,2.488-1.38,4.927-2.324,7.258
			c-1.895,4.684-4.453,9.073-7.46,13.072c-3.009,4.007-6.459,7.631-10.167,10.902c-7.432,6.554-15.836,11.74-24.525,16.105
			c-8.711,4.36-17.754,7.896-26.927,10.923c-18.364,6.023-37.229,10.063-56.182,13.12c-18.964,3.029-38.057,5.018-57.179,6.296
			c-9.563,0.638-19.136,1.095-28.716,1.371c-9.592,0.253-19.134,0.422-28.8,0.17l-0.032-0.001c-1.865-0.05-3.339-1.599-3.29-3.463
			c0.046-1.79,1.487-3.219,3.247-3.291h0.001c18.598-0.84,37.259-0.904,55.888,0.212c18.62,1.126,37.232,3.41,55.5,7.603
			c18.233,4.213,36.208,10.344,52.654,19.682c8.205,4.666,15.99,10.15,23.01,16.535c7.015,6.383,13.242,13.672,18.333,21.701
			c2.55,4.009,4.815,8.197,6.783,12.517c0.988,2.167,1.888,4.345,2.734,6.586l0.604,1.642c0.216,0.619,0.414,1.2,0.589,1.812
			c0.355,1.209,0.63,2.439,0.844,3.668c0.836,4.938,0.594,9.898-0.203,14.66c-0.804,4.768-2.16,9.367-3.803,13.822
			c-3.313,8.901-7.731,17.237-12.569,25.239c-4.859,8.007-10.189,15.681-15.773,23.142c-11.192,14.905-23.38,28.977-36.048,42.562
			c-6.338,6.795-12.809,13.457-19.396,20.004c-6.6,6.544-13.272,12.974-20.168,19.247c-0.802,0.729-2.043,0.669-2.772-0.13
			c-0.726-0.795-0.671-2.031,0.117-2.762L-23.306,576.815z"/>
		<g>
			<path fill="#009CD8" d="M146.404,263.882l37.958,39.848l0.039-37.741l5.428,0.007l-0.052,50.923l-37.958-39.783l-0.038,37.546
				l-5.429-0.005L146.404,263.882z"/>
			<path fill="#009CD8" d="M248.296,290.48c-0.015,14.023-11.53,25.125-25.424,25.113c-13.895-0.016-25.385-11.142-25.371-25.163
				c0.014-13.96,11.528-25.259,25.422-25.243C236.817,265.201,248.309,276.523,248.296,290.48z M202.929,290.369
				c-0.012,10.988,8.897,20.173,19.947,20.183c11.052,0.012,19.979-9.153,19.991-20.143c0.011-11.05-8.77-20.169-19.949-20.18
				S202.94,279.32,202.929,290.369z"/>
			<path fill="#009CD8" d="M270.262,302.588l15.807-39.019l15.729,39.051l12.833-36.501l5.878,0.005l-18.727,51.229l-15.727-39.242
				l-15.809,39.21l-18.625-51.266l5.882,0.005L270.262,302.588z"/>
			<path fill="#009CD8" d="M150.329,379.313l-5.429-0.006l0.05-48.727l5.428,0.006L150.329,379.313z"/>
			<path fill="#009CD8" d="M182.358,340.117c-1.935-3.362-4.26-5.302-8.396-5.307c-4.329-0.003-8.082,3.093-8.086,7.553
				c-0.005,4.201,4.325,6.143,7.619,7.634l3.229,1.425c6.33,2.783,11.692,5.956,11.685,13.712c-0.009,8.53-6.866,15.05-15.332,15.04
				c-7.818-0.008-13.63-5.054-15.174-12.615l5.301-1.48c0.706,4.977,4.515,9.051,9.748,9.053c5.235,0.007,10.021-3.994,10.026-9.484
				c0.005-5.689-4.45-7.632-8.972-9.706l-2.971-1.294c-5.685-2.591-10.594-5.504-10.586-12.483
				c0.008-7.56,6.41-12.399,13.648-12.393c5.427,0.006,10.014,2.787,12.595,7.572L182.358,340.117z"/>
			<path fill="#009CD8" d="M229.176,379.392l-5.428-0.006l0.044-43.686l-11.761-0.012l0.005-5.041l29.081,0.03l-0.006,5.04
				l-11.891-0.013L229.176,379.392z"/>
			<path fill="#009CD8" d="M277.288,350.487l0.02-19.773l5.428,0.005l-0.048,48.726l-5.429-0.004l0.024-23.911l-24.945-0.025
				l-0.023,23.911l-5.43-0.006l0.05-48.726l5.429,0.005l-0.02,19.775L277.288,350.487z"/>
			<path fill="#009CD8" d="M292.824,330.729l25.266,0.026l-0.004,5.04l-19.838-0.02l-0.016,14.477l19.258,0.02l-0.006,5.039
				l-19.258-0.02l-0.018,19.128l19.838,0.021l-0.004,5.041l-25.268-0.026L292.824,330.729z"/>
			<path fill="#009CD8" d="M179.764,443.972l-5.426-0.006l0.043-43.684l-11.762-0.012l0.005-5.04l29.081,0.029l-0.005,5.041
				l-11.892-0.012L179.764,443.972z"/>
			<path fill="#009CD8" d="M202.773,443.997l-5.428-0.007l0.05-48.725l5.426,0.007L202.773,443.997z"/>
			<path fill="#009CD8" d="M219.047,392.508l17.667,40.925l17.813-40.89l9.837,51.515l-5.559-0.005l-6.234-32.965l-0.131,0.002
				l-15.738,34.945l-15.603-34.978l-0.129-0.001l-6.303,32.952l-5.557-0.008L219.047,392.508z"/>
			<path fill="#009CD8" d="M270.622,395.34l25.27,0.026l-0.006,5.039l-19.841-0.021l-0.014,14.476l19.26,0.019l-0.006,5.041
				l-19.26-0.019l-0.019,19.129l19.841,0.019l-0.006,5.043l-25.268-0.027L270.622,395.34z"/>
		</g>
	</g>
</g>
</svg>
